<?xml version="1.0" encoding="utf-8"?>
<!-- Generator: Adobe Illustrator 19.0.0, SVG Export Plug-In . SVG Version: 6.00 Build 0)  -->
<svg version="1.1" id="Artwork" xmlns="http://www.w3.org/2000/svg" xmlns:xlink="http://www.w3.org/1999/xlink" x="0px" y="0px"
	 viewBox="0 0 274.6 44" style="enable-background:new 0 0 274.6 44;" xml:space="preserve">
<style type="text/css">
	.st0{fill:#2B2B2B;}
	.st1{fill:#FFDD24;}
	.st2{fill:#262626;}
	.st3{fill:#FFFFFF;}
	.st4{fill:#E43D33;}
	.st5{fill:#2E2E26;}
	.st6{fill:#2B2E2B;}
</style>
<g>
	<g>
		<path class="st0" d="M163,11.1l1.2-3.2c0.4-1.2,0.7-2,0.8-2.5h0c0.1,0.5,0.4,1.3,0.8,2.5l1.1,3.2H163z M166.2,1.4h-2.3l-6.2,16.2
			h3.1l1.5-4h5.7l1.6,4h3.2L166.2,1.4z"/>
		<path class="st0" d="M194.9,10.5c0-1.4,0.8-2.6,2.2-2.6c1.5,0,2.2,1.3,2.2,2.6H194.9z M197.2,5.7c-3.3,0-5.2,2.6-5.2,6.1
			c0,3.1,1.7,6,5.9,6c1.4,0,2.9-0.3,4.1-1.1l-0.9-2c-0.8,0.5-1.8,0.8-2.9,0.8c-1.9,0-3.2-1.1-3.3-2.9h7.4v-0.7
			C202.3,8,200.4,5.7,197.2,5.7"/>
		<path class="st0" d="M245.3,10.5c0-1.4,0.8-2.6,2.2-2.6c1.5,0,2.2,1.3,2.2,2.6H245.3z M247.6,5.7c-3.3,0-5.2,2.6-5.2,6.1
			c0,3.1,1.7,6,5.9,6c1.4,0,2.9-0.3,4.1-1.1l-0.9-2c-0.8,0.5-1.8,0.8-2.9,0.8c-1.9,0-3.2-1.1-3.3-2.9h7.4v-0.7
			C252.7,8,250.8,5.7,247.6,5.7"/>
		<path class="st0" d="M270.8,2.4l-2.9,0.9V6h-2.1v2.3h2.1v6.4c0,1.9,1.2,3.1,3.3,3.1c1.1,0,2.5-0.3,3.4-0.9l-0.9-2
			c-0.4,0.3-1.1,0.6-1.8,0.6c-0.8,0-1.1-0.4-1.1-1.5V8.2h0.1v0h0.9c1.3,0,1.7-0.7,1.9-1l0.6-1.1l0,0l0,0H271v0h-0.1V2.4z"/>
		<path class="st0" d="M186.8,5.7c-2.7,0-4.4,1.4-4.4,3.5c0,3.9,5.4,3.1,5.4,5.1c0,0.9-0.9,1.2-2,1.2c-1.2,0-2.3-0.4-3.1-1l-0.1,0.3
			l-0.5,2c1,0.5,2.3,1,4,1c2.5,0,4.7-1,4.7-3.6c0-4-5.4-3.3-5.4-5.2c0-0.8,0.7-1.1,1.6-1.1c1,0,1.9,0.2,2.7,0.5l0.5-2.1V6.2
			C189.2,5.9,188.1,5.7,186.8,5.7"/>
		<path class="st0" d="M208.1,5.7c-2.7,0-4.4,1.4-4.4,3.5c0,3.9,5.4,3.1,5.4,5.1c0,0.9-0.9,1.2-2,1.2c-1.1,0-2.2-0.4-3-0.9l-0.6,2.3
			c0.9,0.5,2.3,0.9,3.8,0.9c2.5,0,4.7-1,4.7-3.6c0-4-5.4-3.3-5.4-5.2c0-0.8,0.7-1.1,1.6-1.1c1,0,1.9,0.2,2.7,0.5l0.6-2.1V6.2
			C210.5,5.9,209.4,5.7,208.1,5.7"/>
		<path class="st0" d="M217.7,5.7c-2.7,0-4.4,1.4-4.4,3.5c0,3.9,5.4,3.1,5.4,5.1c0,0.9-0.9,1.2-2,1.2c-1.1,0-2.2-0.4-3.1-0.9
			l-0.6,2.3c0.9,0.5,2.3,0.9,3.9,0.9c2.5,0,4.7-1,4.7-3.6c0-4-5.4-3.3-5.4-5.2c0-0.8,0.7-1.1,1.6-1.1c1,0,1.9,0.2,2.7,0.5l0.6-2.2v0
			C220.1,5.9,219,5.7,217.7,5.7"/>
		<path class="st0" d="M177.2,5.7c-2.7,0-4.4,1.4-4.4,3.5c0,3.9,5.4,3.1,5.4,5.1c0,0.9-0.9,1.2-2,1.2c-1.2,0-2.3-0.4-3.1-1l0,0
			l1.1,2.9c0.7,0.2,1.4,0.3,2.2,0.3c2.5,0,4.7-1,4.7-3.6c0-4-5.4-3.3-5.4-5.2c0-0.8,0.7-1.1,1.6-1.1c1,0,1.9,0.2,2.7,0.5l0.6-2.2
			V6.2C179.7,5.9,178.5,5.7,177.2,5.7"/>
		<path class="st0" d="M223.2,5.5L223.2,5.5l-0.1,6.6v5.4h2.9V9.4c0.9-0.7,1.8-1.1,2.8-1.1c1.5,0,1.7,1.1,1.7,2.5v6.8h2.9V9.8l0-0.4
			c0.8-0.7,1.8-1.1,2.7-1.1c1.5,0,1.8,1.1,1.8,2.4v6.9h2.9V9.9c0-3.1-1.8-4.2-3.8-4.2c-1.3,0-2.8,0.6-4.2,1.8
			c-0.6-1.1-1.7-1.8-3.1-1.8c-1.4,0-2.7,0.7-3.9,1.6h-0.1c-0.3-0.6-0.8-0.9-1-1L223.2,5.5L223.2,5.5z"/>
		<path class="st0" d="M254.4,5.5L254.4,5.5l-0.1,6.6v5.4h2.9V9.4c0.9-0.7,1.9-1.2,2.8-1.2c1.5,0,1.8,1.1,1.8,2.6v6.7h2.9V9.9
			c0-3.3-1.9-4.2-3.7-4.2c-1.4,0-2.7,0.6-4,1.6h-0.2c-0.3-0.6-0.8-0.9-1-1L254.4,5.5L254.4,5.5z"/>
		<path class="st0" d="M53.6,1.2c-5.2,0-8.5,3.7-8.5,8.4c0,4.7,2.9,8.1,8.1,8.1c1.6,0,3.2-0.3,5-1.2c-0.4-0.7-0.7-1.5-0.7-2.4
			c-1.1,0.7-2.4,1.1-4,1.1c-3.3,0-5.3-2.3-5.3-5.7c0-3.2,1.9-5.8,5.4-5.8c1.6,0,2.9,0.4,4.2,1.1V2C56.8,1.5,55.4,1.2,53.6,1.2"/>
		<path class="st0" d="M94.6,15.1c-0.4,0-0.9,0-1.3-0.2V8.2c0.4-0.1,0.9-0.4,1.8-0.4c1.9,0,3,1.4,3,3.4
			C98.1,13.6,96.7,15.1,94.6,15.1 M93.3,0h-2.9v16.7c1,0.5,2.3,0.8,3.8,0.8c3.9,0,6.9-2.3,6.9-6.4c0-3.7-2.5-5.7-5.5-5.7
			c-0.9,0-1.6,0.1-2.2,0.3V0z"/>
		<path class="st0" d="M123,15.2c-2.1,0-3.5-1.3-3.5-3.5c0-2.4,1.5-3.7,3.5-3.7c0.6,0,1,0.1,1.4,0.2V15
			C124,15.2,123.4,15.2,123,15.2 M127.3,0.1h-2.9v5.6c-0.5-0.1-1.1-0.1-1.6-0.1c-3.7,0-6.3,2.5-6.3,6.2c0,3.8,2.8,5.9,6.6,5.9
			c1.4,0,3.1-0.3,4.2-0.9V0.1z"/>
		<path class="st0" d="M143.3,10.4c0-1.4,0.8-2.6,2.2-2.6c1.5,0,2.2,1.3,2.2,2.6H143.3z M145.6,5.6c-3.3,0-5.2,2.6-5.2,6.1
			c0,3.1,1.7,6,5.9,6c1.4,0,2.9-0.3,4.1-1.1l-0.9-2c-0.8,0.5-1.8,0.8-2.9,0.8c-1.9,0-3.2-1.1-3.3-2.9h7.4v-0.7
			C150.7,7.9,148.8,5.6,145.6,5.6"/>
		<path class="st0" d="M63.3,15.4c-1.1,0-1.7-0.6-1.7-1.6c0-0.6,0.2-1,0.7-1.3c0.4-0.2,0.9-0.3,1.7-0.4l1.5,0v2.4l0,0.1
			C65.1,14.9,64.3,15.4,63.3,15.4 M63.8,5.6c-1.6,0-3.1,0.4-4.5,1.1l1,1.9c0.8-0.4,1.9-0.8,3-0.8c1.3,0,2.2,0.6,2.2,1.9v0.4l-2,0.1
			c-1.2,0.1-2.2,0.2-3,0.7c-1.2,0.6-2,1.6-2,3.1c0,2.2,1.6,3.7,3.8,3.7c1.4,0,2.5-0.6,3.3-1.3h0.2c0.3,0.3,0.6,0.5,0.8,0.6l1.5,0.8
			l0.1,0l0.1,0v-6.8h0V9.8C68.5,7,66.9,5.6,63.8,5.6"/>
		<path class="st0" d="M70.7,5.3L70.7,5.3l-0.1,1.8v10.3h2.9v-5.4V9.2c0.9-0.7,1.8-1.1,2.8-1.1c1.5,0,1.7,1.1,1.7,2.5v6.8h2.9V9.6
			l0-0.4c0.8-0.7,1.8-1.1,2.7-1.1c1.5,0,1.8,1.1,1.8,2.4v6.9h2.9V9.7c0-3.1-1.8-4.2-3.8-4.2c-1.3,0-2.8,0.6-4.2,1.8
			c-0.6-1.1-1.7-1.8-3.1-1.8s-2.7,0.7-3.9,1.6h-0.1c-0.3-0.6-0.8-0.9-1-1L70.7,5.3L70.7,5.3z"/>
		<path class="st0" d="M108.7,5.6c-1.3,0-2.5,0.7-3.2,1.5l-0.3-1.3h-2.5v11.5h2.9V9.3c0.9-1.1,1.8-1.4,2.5-1.4
			c1.1,0,1.8,0.7,1.8,0.7V5.8C109.5,5.7,109.1,5.6,108.7,5.6"/>
		<path class="st0" d="M114.6,5.9h-2.9v11.5h2.9V5.9z M113.2,0.5c-1,0-1.8,0.8-1.8,1.8c0,1,0.8,1.7,1.8,1.7c1,0,1.8-0.8,1.8-1.7
			C115,1.2,114.2,0.5,113.2,0.5"/>
		<path class="st0" d="M134.2,20.7c-1.9,0-3.1-0.7-3.1-1.9c0-0.8,0.6-1.2,0.9-1.5c1.6,0.6,5.2,0.3,5.2,1.9
			C137.1,20.1,136,20.7,134.2,20.7 M134,11.6c-1.3,0-2-1-2-2.1c0-1.4,0.9-2.1,2-2.1c1.3,0,2.1,1,2.1,2.2
			C136.1,10.9,135.2,11.6,134,11.6 M140.2,5.1H138h-2.3h0v0H134c-3.1,0-4.7,2.1-4.7,4.2c0,1.5,0.7,2.9,1.9,3.6
			c-1,0.7-1.4,1.5-1.4,2.2c0,0.6,0.3,1.1,0.8,1.4c-1.2,0.5-2.1,1.5-2.1,2.8c0,2,2,3.4,5.4,3.4c4,0,6.1-1.7,6.1-3.8
			c0-4.3-7.6-2.4-7.6-4.5c0-0.2,0.1-0.5,0.3-0.9c0.4,0.1,0.9,0.2,1.4,0.2c2.8,0,4.8-1.7,4.8-4.3c0-0.9-0.3-1.8-0.8-2.4h0.1h0.2v0
			c1-0.1,1.2-0.6,1.4-0.9L140.2,5.1L140.2,5.1L140.2,5.1z"/>
		<rect x="45.8" y="25.2" class="st0" width="2.2" height="16"/>
		<path class="st0" d="M51.1,29.8h1.8l0.3,1.4c1.2-1,2.5-1.7,4-1.7c1.8,0,3.5,1.1,3.5,4.1v7.7h-2.1v-7c0-1.6-0.4-2.9-2-2.9
			c-1.2,0-2.3,0.7-3.3,1.6v8.3h-2.1V29.8z"/>
		<path class="st0" d="M64.2,38.7v-7.2h-2v-1.7h2v-2.6l2.1-0.7v3.3h3.5l-0.6,1.7h-2.9v6.8c0,1,0.4,1.5,1.2,1.5
			c0.7,0,1.4-0.3,1.9-0.6l0.7,1.5c-0.8,0.5-1.9,0.9-3,0.9C65.2,41.5,64.2,40.5,64.2,38.7"/>
		<path class="st0" d="M78.4,34.4c0-1.6-0.8-3.2-2.5-3.2c-1.7,0-2.7,1.5-2.7,3.2H78.4z M73.2,36c0,2.2,1.4,3.8,3.6,3.8
			c1.1,0,2.1-0.3,2.9-0.8l0.7,1.5c-1.1,0.7-2.5,1-3.8,1c-3.8,0-5.6-2.8-5.6-6.1c0-3.5,1.9-6,4.9-6c3,0,4.7,2.3,4.7,6V36H73.2z"/>
		<path class="st0" d="M82.6,29.8h1.8l0.2,1.4c1.2-1.3,2.2-1.7,3.2-1.7c0.5,0,1,0.1,1.4,0.3l-0.8,1.9c-0.4-0.2-0.7-0.3-1.1-0.3
			c-0.8,0-1.6,0.4-2.6,1.5v8.4h-2.1V29.8z"/>
		<path class="st0" d="M90.3,29.8h1.8l0.3,1.4c1.2-1,2.5-1.7,4-1.7c1.8,0,3.5,1.1,3.5,4.1v7.7h-2.1v-7c0-1.6-0.4-2.9-2-2.9
			c-1.2,0-2.3,0.7-3.3,1.6v8.3h-2.1V29.8z"/>
		<path class="st0" d="M106.9,35.8c-0.9,0-1.5,0.2-2,0.4c-0.6,0.3-0.9,0.9-0.9,1.6c0,1.2,0.8,2,2,2c1.3,0,2.3-0.8,2.8-1.3v-2.8
			L106.9,35.8z M108.9,40c-0.9,0.8-2,1.5-3.4,1.5c-2.1,0-3.7-1.4-3.7-3.6c0-1.5,0.8-2.6,1.9-3.1c0.8-0.4,1.7-0.5,2.9-0.6l2.1-0.1
			v-0.6c0-1.6-1-2.3-2.4-2.3c-1.3,0-2.3,0.4-3.1,0.9l-0.8-1.5c1.3-0.8,2.8-1.1,4.2-1.1c2.6,0,4.3,1.2,4.3,4v4.2c0,2,0.1,3,0.2,3.6
			h-1.9L108.9,40z"/>
		<path class="st0" d="M114.4,38.7v-7.2h-2v-1.7h2v-2.6l2.1-0.7v3.3h3.5l-0.6,1.7h-2.9v6.8c0,1,0.4,1.5,1.2,1.5
			c0.7,0,1.4-0.3,1.9-0.6l0.7,1.5c-0.8,0.5-1.9,0.9-3,0.9C115.4,41.5,114.4,40.5,114.4,38.7"/>
		<path class="st0" d="M121.9,29.8h2.1v11.5h-2.1V29.8z M121.6,26c0-0.8,0.6-1.4,1.4-1.4c0.8,0,1.4,0.6,1.4,1.4
			c0,0.8-0.6,1.4-1.4,1.4C122.2,27.4,121.6,26.8,121.6,26"/>
		<path class="st0" d="M135,35.5c0-2.5-1.2-4.3-3.2-4.3c-2,0-3.3,1.8-3.3,4.3c0,2.5,1.2,4.2,3.2,4.2C133.8,39.7,135,38,135,35.5
			 M126.3,35.5c0-3.4,2.2-6,5.5-6c3.3,0,5.5,2.6,5.5,6c0,3.4-2.2,6-5.5,6C128.5,41.5,126.3,38.9,126.3,35.5"/>
		<path class="st0" d="M139.2,29.8h1.8l0.3,1.4c1.2-1,2.5-1.7,4-1.7c1.8,0,3.5,1.1,3.5,4.1v7.7h-2.1v-7c0-1.6-0.4-2.9-2-2.9
			c-1.2,0-2.3,0.7-3.3,1.6v8.3h-2.1V29.8z"/>
		<path class="st0" d="M155.8,35.8c-0.9,0-1.5,0.2-2,0.4c-0.6,0.3-0.9,0.9-0.9,1.6c0,1.2,0.8,2,2,2c1.3,0,2.3-0.8,2.8-1.3v-2.8
			L155.8,35.8z M157.8,40c-0.9,0.8-2,1.5-3.4,1.5c-2.1,0-3.7-1.4-3.7-3.6c0-1.5,0.8-2.6,1.9-3.1c0.8-0.4,1.7-0.5,2.9-0.6l2.1-0.1
			v-0.6c0-1.6-1-2.3-2.4-2.3c-1.3,0-2.3,0.4-3.1,0.9l-0.8-1.5c1.3-0.8,2.8-1.1,4.2-1.1c2.6,0,4.3,1.2,4.3,4v4.2c0,2,0.1,3,0.2,3.6
			h-1.9L157.8,40z"/>
		<path class="st0" d="M162.5,24h2.1v14.4c0,0.9,0.3,1.1,0.9,1.1c0.2,0,0.5-0.1,0.7-0.1l0.4,1.7c-0.5,0.2-1.2,0.3-1.8,0.3
			c-1.6,0-2.4-0.9-2.4-2.4V24z"/>
		<polygon class="st0" points="173.6,25.2 181.7,25.2 181.1,27.1 175.8,27.1 175.8,32.2 181,32.2 181,34 175.8,34 175.8,39.4 
			181.8,39.4 181.8,41.3 173.6,41.3 		"/>
		<path class="st0" d="M191.6,39.4v-7.9c-0.5-0.2-0.9-0.3-1.7-0.3c-2.2,0-4,1.6-4,4.3c0,2.5,1.5,4.1,4,4.1
			C190.5,39.7,191.2,39.6,191.6,39.4 M183.7,35.7c0-3.7,2.7-6.2,6.1-6.2c0.6,0,1.2,0,1.8,0.2V24h2.1v16.7c-0.9,0.5-2.4,0.8-3.8,0.8
			C186.5,41.5,183.7,39.5,183.7,35.7"/>
		<path class="st0" d="M196.8,39.3c-0.2-0.6-0.3-1.2-0.3-2.2v-7.4h2.1v7c0,0.7,0,1.2,0.2,1.7c0.3,0.8,0.9,1.2,1.8,1.2
			c1.2,0,2.4-0.7,2.9-1.4v-8.4h2.1v8c0,1.9,0.1,3,0.2,3.6h-1.9l-0.4-1.3c-1,0.9-2.2,1.5-3.7,1.5C198.9,41.5,197.4,41,196.8,39.3"/>
		<path class="st0" d="M207.9,35.6c0-3.4,2.3-6.2,5.8-6.2c1.2,0,2.3,0.3,2.9,0.7v1.9c-0.8-0.5-1.7-0.8-2.8-0.8
			c-2.4,0-3.8,1.8-3.8,4.3c0,2.7,1.4,4.2,3.6,4.2c1.2,0,2-0.4,2.8-0.8l0.6,1.5c-0.9,0.6-2.2,1.1-3.7,1.1
			C209.9,41.5,207.9,38.9,207.9,35.6"/>
		<path class="st0" d="M223.1,35.8c-0.9,0-1.5,0.2-2,0.4c-0.6,0.3-0.9,0.9-0.9,1.6c0,1.2,0.8,2,2,2c1.3,0,2.3-0.8,2.8-1.3v-2.8
			L223.1,35.8z M225.1,40c-0.9,0.8-2,1.5-3.4,1.5c-2.1,0-3.7-1.4-3.7-3.6c0-1.5,0.8-2.6,1.9-3.1c0.8-0.4,1.7-0.5,2.9-0.6l2.1-0.1
			v-0.6c0-1.6-1-2.3-2.4-2.3c-1.3,0-2.3,0.4-3.1,0.9l-0.8-1.5c1.3-0.8,2.8-1.1,4.2-1.1c2.6,0,4.3,1.2,4.3,4v4.2c0,2,0.1,3,0.2,3.6
			h-1.9L225.1,40z"/>
		<path class="st0" d="M230.6,38.7v-7.2h-2v-1.7h2v-2.6l2.1-0.7v3.3h3.5l-0.6,1.7h-2.9v6.8c0,1,0.4,1.5,1.2,1.5
			c0.7,0,1.4-0.3,1.9-0.6l0.7,1.5c-0.8,0.5-1.9,0.9-3,0.9C231.6,41.5,230.6,40.5,230.6,38.7"/>
		<path class="st0" d="M238.1,29.8h2.1v11.5h-2.1V29.8z M237.8,26c0-0.8,0.6-1.4,1.4-1.4c0.8,0,1.4,0.6,1.4,1.4
			c0,0.8-0.6,1.4-1.4,1.4C238.4,27.4,237.8,26.8,237.8,26"/>
		<path class="st0" d="M251.2,35.5c0-2.5-1.2-4.3-3.2-4.3c-2,0-3.3,1.8-3.3,4.3c0,2.5,1.2,4.2,3.2,4.2C250,39.7,251.2,38,251.2,35.5
			 M242.5,35.5c0-3.4,2.2-6,5.5-6c3.3,0,5.5,2.6,5.5,6c0,3.4-2.2,6-5.5,6C244.7,41.5,242.5,38.9,242.5,35.5"/>
		<path class="st0" d="M255.4,29.8h1.8l0.3,1.4c1.2-1,2.5-1.7,4-1.7c1.8,0,3.5,1.1,3.5,4.1v7.7h-2.1v-7c0-1.6-0.4-2.9-2-2.9
			c-1.2,0-2.3,0.7-3.3,1.6v8.3h-2.1V29.8z"/>
	</g>
	<path class="st1" d="M36.1,24c-0.1,2-0.4,3.8-0.9,5.3c-0.5,1.5-1.2,2.9-2,4c-1.6,2.1-3.6,3.2-4.9,3.9c-0.1,0.1-0.9,0.5-4.6,2.3
		l0,0.1h0.1V24.1L36.1,24L36.1,24L23.7,24v15.9l0.1-0.1c3.7-1.9,4.5-2.3,4.6-2.3c1.3-0.7,3.3-1.8,4.9-4c0.9-1.2,1.6-2.5,2.1-4.1
		c0.5-1.6,0.8-3.4,0.9-5.4L36.1,24z"/>
	<path class="st1" d="M14.1,24v15.7h0.1l0-0.1c-3.7-1.9-4.5-2.3-4.6-2.3c-1.3-0.7-3.3-1.8-4.9-3.9c-0.9-1.1-1.5-2.5-2-4
		C2.2,27.8,1.9,26,1.9,24l-0.1,0v0.1L14.1,24L14.1,24L1.7,23.9l0,0.1c0.1,2,0.4,3.8,0.9,5.4C3,31,3.7,32.3,4.6,33.5
		c1.6,2.2,3.6,3.3,4.9,4c0.1,0.1,0.9,0.5,4.6,2.3l0.1,0.1V24H14.1z"/>
	<polygon class="st2" points="36.2,1.7 36.2,1.6 23.7,1.6 23.7,14.6 36.3,14.6 36.3,1.6 36.2,1.6 36.2,1.7 36.1,1.7 36.1,14.4 
		23.8,14.4 23.8,1.8 36.2,1.8 36.2,1.7 36.1,1.7 	"/>
	<polygon class="st2" points="14.2,1.7 14.2,1.6 1.6,1.6 1.6,14.6 14.3,14.6 14.3,1.6 14.2,1.6 14.2,1.7 14.1,1.7 14.1,14.4 
		1.8,14.4 1.8,1.8 14.2,1.8 14.2,1.7 14.1,1.7 	"/>
	<path class="st0" d="M19,44l-0.4-0.2c-0.6-0.3-9.3-4.6-9.9-4.9C5.9,37.4,0,34.1,0,22.9V0h38v22.9c0,11.3-5.9,14.5-8.8,16
		c-0.5,0.3-9.3,4.7-9.9,4.9L19,44z"/>
	<path class="st3" d="M22.8,15.4V0.8h-7.7v14.6H0.8v7.5l0,0.2h14.3v18c2.1,1,3.9,1.9,3.9,1.9l0,0l0,0c0,0,1.8-0.9,3.9-1.9v-18h14.3
		v-0.2v-7.5H22.8z"/>
	<rect x="0.8" y="0.8" class="st4" width="14.3" height="14.6"/>
	<rect x="22.8" y="0.8" class="st4" width="14.3" height="14.6"/>
	<path class="st4" d="M15.1,23.1H0.8c0.1,10.5,5.4,13.5,8.3,15.1c0.3,0.2,3.3,1.7,6,3V23.1z"/>
	<path class="st4" d="M22.8,23.1v18c2.6-1.3,5.7-2.8,6-3c2.9-1.6,8.2-4.6,8.3-15.1H22.8z"/>
	<path class="st0" d="M27.8,19.4L28,19l-0.4-0.4L27.3,19l0.3,0.4c0,0.2,0,1.7-0.9,2.3c0,0,0.3,0.1,0.7,0c0,0,0.1,0.4,0.3,0.9
		c0.2-0.5,0.3-0.9,0.3-0.9c0.4,0.1,0.7,0,0.7,0C27.7,21.1,27.7,19.6,27.8,19.4"/>
	<path class="st0" d="M30.1,16.8l0.3-0.4L30,16l-0.4,0.4l0.3,0.4c0,0.2,0,1.7-0.9,2.3c0,0,0.3,0.1,0.7,0c0,0,0.1,0.4,0.3,0.9
		c0.2-0.5,0.3-0.9,0.3-0.9c0.4,0.1,0.7,0,0.7,0C30.1,18.5,30.1,16.9,30.1,16.8"/>
	<path class="st0" d="M32.4,19.4l0.3-0.4l-0.4-0.4L32,19l0.3,0.4c0,0.2,0,1.7-0.9,2.3c0,0,0.3,0.1,0.7,0c0,0,0.1,0.4,0.3,0.9
		c0.2-0.5,0.3-0.9,0.3-0.9c0.4,0.1,0.7,0,0.7,0C32.4,21.1,32.4,19.6,32.4,19.4"/>
	<path class="st0" d="M34.7,16.8l0.3-0.4L34.7,16l-0.4,0.4l0.3,0.4c0,0.2,0,1.7-0.9,2.3c0,0,0.3,0.1,0.7,0c0,0,0.1,0.4,0.3,0.9
		c0.2-0.5,0.3-0.9,0.3-0.9c0.4,0.1,0.7,0,0.7,0C34.7,18.5,34.7,16.9,34.7,16.8"/>
	<path class="st0" d="M25.4,16.8l0.3-0.4L25.3,16L25,16.4l0.3,0.4c0,0.2,0,1.7-0.9,2.3c0,0,0.3,0.1,0.7,0c0,0,0.1,0.4,0.3,0.9
		c0.2-0.5,0.3-0.9,0.3-0.9c0.4,0.1,0.7,0,0.7,0C25.4,18.5,25.4,16.9,25.4,16.8"/>
	<path class="st0" d="M5.7,19.4L6,19l-0.4-0.4L5.3,19l0.3,0.4c0,0.2,0,1.7-0.9,2.3c0,0,0.3,0.1,0.7,0c0,0,0.1,0.4,0.3,0.9
		c0.2-0.5,0.3-0.9,0.3-0.9c0.4,0.1,0.7,0,0.7,0C5.7,21.1,5.7,19.6,5.7,19.4"/>
	<path class="st0" d="M8,16.8l0.3-0.4L8,16l-0.4,0.4l0.3,0.4c0,0.2,0,1.7-0.9,2.3c0,0,0.3,0.1,0.7,0c0,0,0.1,0.4,0.3,0.9
		C8.1,19.4,8.2,19,8.2,19c0.4,0.1,0.7,0,0.7,0C8,18.5,8,16.9,8,16.8"/>
	<path class="st0" d="M10.4,19.4l0.3-0.4l-0.4-0.4L9.9,19l0.3,0.4c0,0.2,0,1.7-0.9,2.3c0,0,0.3,0.1,0.7,0c0,0,0.1,0.4,0.3,0.9
		c0.2-0.5,0.3-0.9,0.3-0.9c0.4,0.1,0.7,0,0.7,0C10.3,21.1,10.4,19.6,10.4,19.4"/>
	<path class="st0" d="M12.7,16.8l0.3-0.4L12.6,16l-0.4,0.4l0.3,0.4c0,0.2,0,1.7-0.9,2.3c0,0,0.3,0.1,0.7,0c0,0,0.1,0.4,0.3,0.9
		c0.2-0.5,0.3-0.9,0.3-0.9c0.4,0.1,0.7,0,0.7,0C12.7,18.5,12.7,16.9,12.7,16.8"/>
	<path class="st0" d="M3.4,16.8l0.3-0.4L3.3,16l-0.4,0.4l0.3,0.4c0,0.2,0,1.7-0.9,2.3c0,0,0.3,0.1,0.7,0c0,0,0.1,0.4,0.3,0.9
		C3.5,19.4,3.6,19,3.6,19c0.4,0.1,0.7,0,0.7,0C3.4,18.5,3.4,16.9,3.4,16.8"/>
	<path class="st0" d="M19.1,25.3l0.3-0.4L19,24.5L18.6,25l0.3,0.4c0,0.2,0,1.7-0.9,2.3c0,0,0.3,0.1,0.7,0c0,0,0.1,0.4,0.3,0.9
		c0.2-0.5,0.3-0.9,0.3-0.9c0.4,0.1,0.7,0,0.7,0C19.1,27,19.1,25.5,19.1,25.3"/>
	<path class="st0" d="M19.1,33.2l0.3-0.4L19,32.4l-0.4,0.4l0.3,0.4c0,0.2,0,1.7-0.9,2.3c0,0,0.3,0.1,0.7,0c0,0,0.1,0.4,0.3,0.9
		c0.2-0.5,0.3-0.9,0.3-0.9c0.4,0.1,0.7,0,0.7,0C19.1,34.9,19.1,33.4,19.1,33.2"/>
	<path class="st0" d="M21.2,29.3l0.3-0.4l-0.4-0.4l-0.4,0.4l0.3,0.4c0,0.2,0,1.7-0.9,2.3c0,0,0.3,0.1,0.7,0c0,0,0.1,0.4,0.3,0.9
		c0.2-0.5,0.3-0.9,0.3-0.9c0.4,0.1,0.7,0,0.7,0C21.2,31,21.2,29.4,21.2,29.3"/>
	<path class="st0" d="M16.9,29.3l0.3-0.4l-0.4-0.4l-0.4,0.4l0.3,0.4c0,0.2,0,1.7-0.9,2.3c0,0,0.3,0.1,0.7,0c0,0,0.1,0.4,0.3,0.9
		c0.2-0.5,0.3-0.9,0.3-0.9c0.4,0.1,0.7,0,0.7,0C16.9,31,16.9,29.4,16.9,29.3"/>
	<path class="st0" d="M21.2,37.2l0.3-0.4l-0.4-0.4l-0.4,0.4l0.3,0.4c0,0.2,0,1.7-0.9,2.3c0,0,0.3,0.1,0.7,0c0,0,0.1,0.4,0.3,0.9
		c0.2-0.5,0.3-0.9,0.3-0.9c0.4,0.1,0.7,0,0.7,0C21.2,38.9,21.2,37.3,21.2,37.2"/>
	<path class="st0" d="M16.9,37.2l0.3-0.4l-0.4-0.4l-0.4,0.4l0.3,0.4c0,0.2,0,1.7-0.9,2.3c0,0,0.3,0.1,0.7,0c0,0,0.1,0.4,0.3,0.9
		c0.2-0.5,0.3-0.9,0.3-0.9c0.4,0.1,0.7,0,0.7,0C16.9,38.9,16.9,37.3,16.9,37.2"/>
	<path class="st0" d="M19.1,7.3L19.4,7L19,6.5L18.6,7l0.3,0.4c0,0.2,0,1.7-0.9,2.3c0,0,0.3,0.1,0.7,0c0,0,0.1,0.4,0.3,0.9
		c0.2-0.5,0.3-0.9,0.3-0.9c0.4,0.1,0.7,0,0.7,0C19.1,9,19.1,7.5,19.1,7.3"/>
	<path class="st0" d="M21.2,3.4L21.5,3l-0.4-0.4L20.8,3l0.3,0.4c0,0.2,0,1.7-0.9,2.3c0,0,0.3,0.1,0.7,0c0,0,0.1,0.4,0.3,0.9
		c0.2-0.5,0.3-0.9,0.3-0.9c0.4,0.1,0.7,0,0.7,0C21.2,5.1,21.2,3.5,21.2,3.4"/>
	<path class="st0" d="M16.9,3.4L17.2,3l-0.4-0.4L16.4,3l0.3,0.4c0,0.2,0,1.7-0.9,2.3c0,0,0.3,0.1,0.7,0c0,0,0.1,0.4,0.3,0.9
		C17,6,17.1,5.6,17.1,5.6c0.4,0.1,0.7,0,0.7,0C16.9,5.1,16.9,3.5,16.9,3.4"/>
	<path class="st0" d="M21.2,11.3l0.3-0.3l-0.4-0.4l-0.4,0.4l0.3,0.3c0,0.2,0,1.7-0.9,2.3c0,0,0.3,0.1,0.7,0c0,0,0.1,0.4,0.3,0.9
		c0.2-0.5,0.3-0.9,0.3-0.9c0.4,0.1,0.7,0,0.7,0C21.2,13,21.2,11.4,21.2,11.3"/>
	<path class="st0" d="M16.9,11.3l0.3-0.3l-0.4-0.4l-0.4,0.4l0.3,0.3c0,0.2,0,1.7-0.9,2.3c0,0,0.3,0.1,0.7,0c0,0,0.1,0.4,0.3,0.9
		c0.2-0.5,0.3-0.9,0.3-0.9c0.4,0.1,0.7,0,0.7,0C16.9,13,16.9,11.4,16.9,11.3"/>
	<path class="st0" d="M12,8l0,0.2l0.1,0.4c0.2,0.7,0.3,0.9,0.6,0.9c0.2,0,0.4-0.1,0.4-0.3L13.3,9l0.1-0.1c0.1,0,0.2,0.1,0.2,0.4
		c0,0.1,0,0.3,0.1,0.6c0,0.2,0,0.4,0,0.5l-0.1,0.4c0,0.2,0.1,0.6,0.1,0.7c0,0.3-0.1,0.6-0.1,0.7c0.1,0.2,0.1,0.3,0.1,0.5l0,0.4
		c-0.1,0.3-0.1,0.4-0.1,0.4l0,0.2l0,0.1l0,0.1l-0.2-0.1L13,13.7l-0.3-0.2c-0.2,0.2-0.3,0.2-0.9,0.4L11.6,14l-0.2,0.1
		c-0.1,0-0.2-0.2-0.2-0.5c0-0.3,0-0.5,0.1-0.7c-0.2-0.1-0.3-0.1-0.4-0.1l-0.2,0l0,0l-0.1-0.1l0.1-0.3l0.1-0.3l0.3-0.3l0.3-0.2
		l0.4-0.1c0.3-0.1,0.4-0.2,0.4-0.4c0-0.2-0.1-0.3-0.4-0.4l-0.5-0.2l-0.5-0.2c-0.3-0.2-0.3-0.2-0.4-0.2l-0.2,0.2
		c0,0.2,0.1,0.4,0.3,0.4l0.1,0l0.1,0l0.1,0.1l0,0.1l0,0.2c0,0.2-0.1,0.4-0.4,0.7l-0.1,0.1c-0.1,0.4-0.3,0.7-0.7,1L9.7,13l-0.1,0.2
		l-0.2,0.3L9,13.7l-0.2,0.2l-0.1,0.2l-0.1,0.1c-0.1,0-0.2-0.1-0.3-0.3l-0.2-0.2l-0.2,0l-0.2,0H7.3c-0.2,0-0.5,0.1-0.7,0.1l-0.1,0
		l-0.1-0.1l0-0.1c0-0.2,0.2-0.6,0.4-1c0.1-0.2,0.2-0.3,0.3-0.4c0-0.2-0.2-0.4-0.3-0.4l-0.2-0.1l0-0.1c0-0.1,0.1-0.1,0.3-0.2
		c0.2-0.1,0.5-0.2,0.7-0.2c0.2,0,0.4,0.1,0.6,0.3C8.4,11.9,8.5,12,8.7,12c0.3,0,0.5-0.2,0.5-0.5c0-0.2-0.1-0.3-0.3-0.6
		c-0.3-0.4-0.4-0.7-0.4-1c0-0.2,0.1-0.5,0.1-0.6l0.1-0.2l0-0.1L8.5,8.9C8.3,8.9,7.9,9,7.6,9.2L7.4,9.4l0.1,0.1l0.1,0.1l0,0L7.5,9.8
		l-0.2,0.3c-0.1,0.2-0.3,0.4-0.5,0.5l-0.1,0.1l-0.1,0.2c-0.1,0.2-0.3,0.4-0.5,0.5l-0.2,0.1l-0.1,0.2L5.6,12l-0.3,0.4L5,12.7
		c-0.1,0.1-0.2,0.3-0.3,0.7c-0.1,0.3-0.2,0.4-0.2,0.4l-0.1-0.1c-0.2-0.3-0.4-0.4-0.6-0.4l-0.1,0.1l-0.3,0.1l-0.4,0.1
		c-0.3,0.1-0.5,0.1-0.7,0.4l-0.1,0.1L2,14l0-0.1l0.1-0.3c0.1-0.4,0.1-0.6,0.2-0.8l0.2-0.4l0.1-0.2c0-0.3-0.3-0.5-0.6-0.6l-0.1-0.1
		l0.2-0.3c0.2-0.2,0.6-0.3,0.8-0.3c0.1,0,0.3,0,0.5,0.1l0.3,0.1l0.3,0.1c0.3,0,0.6-0.3,0.9-0.8C5,10.1,5.1,9.9,5.1,9.8
		c0-0.3-0.1-0.5-0.4-0.5c-0.2,0-0.4,0.1-0.5,0.2L4,9.9L4,10l0,0l-0.1,0.2c-0.1,0-0.3-0.2-0.8-0.7c-0.4-0.4-0.4-0.6-0.4-1
		C2.2,7.9,2.1,7.7,2.1,7.3l0-0.2C1.9,6.7,1.8,6.5,1.8,6.2l0.1-0.3C1.7,5.7,1.7,5.6,1.6,5.4L1.6,5.2L1.4,4.7L1.3,4.5
		c0-0.1,0.1-0.2,0.5-0.3l0-0.3l0-0.3l0.1-0.4c0-0.2,0.1-0.3,0.1-0.4c0-0.1,0-0.1-0.1-0.4L1.7,2.1L1.7,2l0.1-0.1
		c0.1,0,0.4,0.2,0.8,0.5C3.2,3,3.4,3.2,3.5,3.9l0,0.2C3.8,4.4,4,4.7,4,5c0,0.3-0.1,0.5-0.2,0.8L3.5,6.1L3.4,6.5
		c0,0.2,0.1,0.4,0.2,0.7C3.8,7.6,4,7.7,4.2,7.7c0.3,0,0.6-0.6,0.6-1.2V6.4l0-0.2l0-0.4c0-0.2,0-0.3,0-0.4l0-0.3l0-0.2L4.7,4.8
		L4.5,4.5C4.1,4.1,3.9,3.7,3.9,3.4c0-0.4,0.3-0.6,0.6-0.6l0.3,0V2.7c0-0.5,0.1-0.9,0.3-0.9l0.1,0L5.3,2l0.3,0.2l0.1,0.1l0.2-0.3
		l0.2-0.2l0.1-0.2l0.1-0.1l0.1-0.1l0.1,0.2c0,0.1,0,0.1,0.3,0.3l0.1,0.2l0.1,0.2l0,0.1L7.1,2l0.2-0.1l0.1-0.1l0.1,0.1l0.1,0.2
		c0.1,0.2,0.2,0.3,0.2,0.4l0,0.1v0.1c0.4,0.1,0.5,0.3,0.5,0.8c0,0.3-0.2,0.7-0.5,1C7.6,4.8,7.6,4.9,7.6,5.1c0,0.9,0.6,1.4,1.7,1.4
		l0.8,0c0.5,0,0.8,0.1,1.3,0.2c0.6,0.2,0.7,0.2,0.9,0.2l0.2,0l0.1-0.1c0-0.2-0.3-0.3-1.3-0.6c-2-0.6-2.8-1.4-2.8-2.7
		c0-1,0.9-1.8,1.9-1.8c0.4,0,0.9,0.1,1.2,0.2l0.5,0.2l0.3,0c0.2,0,0.3-0.1,0.3-0.4l0.1-0.2c0.1,0,0.4,0.2,0.6,0.4
		c0.2,0.3,0.3,0.6,0.3,0.8c0,0.3-0.1,0.5-0.4,0.6C13,3.8,12.6,4,12.2,4c-0.4,0-0.8-0.2-1.7-0.7c-0.3-0.2-0.4-0.2-0.6-0.2
		c-0.2,0-0.4,0.1-0.4,0.3c0,0.2,0.1,0.3,0.5,0.4c0.5,0.2,0.7,0.3,0.9,0.5c0.6,0.1,0.9,0.2,1.3,0.5c1.1,0.3,1.7,1.1,1.7,1.9
		c0,0.8-0.5,1.4-1.3,1.4C12.4,8.1,12.3,8.1,12,8"/>
	<path class="st1" d="M13.2,13.3l0-0.3l0-0.1l0-0.2l0-0.2l-0.1-0.4L13,12l-0.1-0.2l0-0.1l0.1-0.1l0.2,0.1l0.1,0
		c0.1,0,0.1-0.1,0.1-0.3c0-0.2,0-0.4-0.1-0.4l-0.2-0.2l-0.2-0.1l-0.1-0.1l0.1-0.1l0.3,0.1l0.1,0l0.1-0.1l0,0l0-0.3l-0.1-0.3
		l-0.1-0.1l0,0l-0.3,0.1l0,0c-0.4,0-0.8-0.3-0.9-0.8l-0.2-0.8C11.5,8,11.3,7.8,11,7.5l-0.2-0.1l-0.2,0l-0.1-0.1l0.2-0.1l0.4,0
		c0.1,0,0.4,0.1,0.7,0.2c0.4,0.1,0.6,0.2,0.8,0.2c0.6,0,1-0.3,1-0.9c0-0.4-0.2-0.8-0.5-1.1l-0.4-0.3l-0.1,0.1l0,0.2v0l-0.1,0.1
		l-0.2-0.2c-0.2-0.5-0.6-0.8-1-0.8l-0.1,0.1L11.2,5l0.1,0.2l0,0.1l0,0l-0.2-0.1L10.9,5l-0.2-0.2c-0.1-0.2-0.2-0.3-0.5-0.4L10,4.2
		l-0.2,0L9.7,4.2l0,0.1l0.1,0.2L9.9,4.7c-0.1,0-0.3-0.2-0.5-0.4C9.2,4,9.2,3.8,9.2,3.5c0-0.5,0.4-0.9,0.9-0.9c0.3,0,0.6,0.1,0.9,0.3
		l0.6,0.4c0.2,0.1,0.5,0.2,0.7,0.2l0.4-0.1l0.1-0.1l0.1-0.1l0-0.1l-0.1,0l-0.3-0.1l-0.3-0.1c-0.3-0.1-0.5-0.2-0.6-0.3
		c-0.2-0.1-0.3-0.2-0.4-0.2l-0.2-0.1L11,2.4l0.1,0l0.4,0.2l0.5,0.2c0.3,0.1,0.6,0.2,0.8,0.2c0.2,0,0.4-0.2,0.4-0.4L13,2L13,2L12.9,2
		l0,0.1l0,0.1l-0.2,0.3l-0.2,0l-0.8-0.3C11,2.1,10.7,2,10.4,2C9.5,2,8.7,2.6,8.7,3.5c0,1,0.7,1.6,2.4,2.2C12.7,6.2,13,6.4,13,6.8
		c0,0.2-0.2,0.5-0.5,0.5l-0.3,0c-0.1,0-0.3-0.1-0.8-0.2c-0.5-0.1-0.9-0.2-1.5-0.2C8.6,6.9,8,7.1,7.4,7.6L7.1,7.8L7,7.8l-0.2,0h0
		L6.4,8C6.3,8.2,6.2,8.3,6.2,8.3L6.1,8.4C6,8.4,5.9,8.3,5.8,8L5.5,7.6L5.3,7.4L5.2,7.3l0-0.1l0.2-0.3l0.1-0.2c0.1,0,0.1,0.1,0.1,0.4
		l0.1,0.3l0.1,0.3L6,7.8c0.1,0,0.3-0.3,0.3-0.6c0-0.3,0.1-0.3,0.1-0.3l0.1,0l0.1,0.2l0.2,0.2l0.1,0.1l0,0C7,7.3,7.1,7.3,7.1,7l0-0.1
		l0-0.2l0-0.1l0.1-0.1l0.1,0l0.1,0.1l0.2,0.1l0.2-0.1L7.6,6.4L7.5,6.3C7.4,6.1,7.4,6,7.3,6L7.2,6L7,6.1l-0.1,0l-0.1,0
		c0-0.1,0.1-0.3,0.2-0.5c0.1-0.2,0.2-0.5,0.2-0.9c0-0.6,0.1-1,0.2-1l0.1,0.2l0,0.2l0,0.1l0.1,0.2c0.1,0,0.2-0.2,0.3-0.4L8,3.6l0-0.1
		L7.8,3.1L7.5,3L7.4,3V2.8V2.7l0-0.1l0-0.1L7.3,2.3C7,2.4,6.9,2.5,6.8,2.6L6.6,2.8L6.6,2.7l0-0.2l0-0.1c0-0.3-0.2-0.5-0.4-0.7
		L6.1,1.9L6,2L5.9,2.2L5.8,2.4l0,0.1v0l0,0L5.7,2.7l0,0L5.6,2.6L5.4,2.5L5.2,2.3L5.1,2.2l0,0.1L5,2.5l0,0.2l0,0.2l0,0L4.9,3.1
		L4.7,3.1L4.6,3C4.4,3,4.3,3.1,4.3,3.4c0,0.2,0.1,0.5,0.2,0.6l0.2,0.2l0.1,0.1l0-0.3l0-0.2l0-0.1l0.1-0.1c0.1,0,0.1,0.1,0.2,0.3
		l0.1,0.4l0.1,0.6l0.1,0.5c0.1,0.2,0.2,0.4,0.2,0.4L5.6,6L5.6,6.1L5.5,6L5.3,6L5.2,6C5.1,6,5,6.2,5,7c0,0.5,0.1,1.2,0.2,1.5l0.3,0.6
		l0.1,0.3c0,0.9-1.2,2.3-2.5,2.9c-0.5,0.2-0.6,0.5-0.7,1l0,0.2c0.2-0.1,0.3-0.1,0.4-0.2c0.4-0.1,0.4-0.1,0.5-0.3l0-0.2
		c0-0.1,0-0.1,0.3-0.2l0.2-0.2L4,12.3l0,0l0,0l-0.1,0.3l0,0.1c0,0.3,0.1,0.5,0.4,0.6c0-0.3,0.1-0.4,0.2-0.5l0.2-0.3
		c0.1-0.1,0.1-0.3,0.1-0.5l0-0.4l0-0.1l0.1-0.1l0.1,0l0,0.2l0.1,0.1c0.1,0,0.3-0.2,0.4-0.4L5.6,11l0-0.2l0-0.2l0,0l0.1-0.1l0.1,0
		l0.1,0.3L6,11l0.3-0.3c0.1-0.1,0.1-0.3,0.1-0.5c0-0.3,0-0.3,0.1-0.3l0.1,0l0,0.2l0.1,0.1L7,9.8l0-0.1L6.9,9.6L6.8,9.3
		c0-0.2,0-0.2,0.1-0.4l0.2-0.3c0.2-0.3,0.2-0.4,0.3-0.4l0.1,0.1l0,0.1l0,0.1l0.1,0.1l0.2-0.1c0,0,0.1-0.1,0.3-0.1l0.4-0.1l0.2,0
		l0.2,0l0.3,0l0.2-0.2L9.1,7.7L9.1,7.6l0,0l0.1,0c0.1,0,0.3,0.2,0.4,0.5c1,1.6,1.4,2,2.1,2.3c0.7,0.2,0.9,0.4,0.9,0.8
		c0,0.2-0.1,0.5-0.4,0.9c-0.5,0.7-0.7,1-0.7,1.5l0,0.1l0.1-0.1l0.2-0.1l0.3-0.1l0.2-0.2l0,0l0-0.3l0,0l0.1-0.3l0.1,0l0.1,0.1
		l0.2,0.4C12.9,13.1,13,13.2,13.2,13.3"/>
	<path class="st1" d="M3.5,4.5L3.3,4.8l0,0.2c0,0.2,0,0.2,0,0.3l0.1,0.3l0.3-0.3L3.7,5L3.6,4.7L3.5,4.5z"/>
	<path class="st1" d="M2.5,2.8l0.2,0.2C2.9,3.2,3,3.7,3,4.3C3,4.5,3,4.6,3,5c0,0.2,0,0.4,0,0.5C3,7,3.5,8.1,4.1,8.1
		c0.2,0,0.3-0.1,0.5-0.4l0.1-0.1l0.1,0.1l0,0.3l0,0.2l0,0.3l0,0.2l0,0L4.8,8.8l-0.2,0L4.3,9C4.1,9.1,4,9.2,4,9.3L3.8,9.5L3.8,9.6
		c-0.1,0-0.2-0.1-0.3-0.3C3.3,9.1,3.3,8.9,3.3,8.9l0.1-0.1h0l0.2,0l0.1,0l0.1,0l0.1-0.1L3.8,8.6L3.2,8.4C3.1,8.3,2.9,8.2,2.8,8
		C2.7,7.7,2.6,7.6,2.6,7.5l0.1-0.1l0.1,0l0.2,0L3,7.3L2.9,7.2c-0.5-0.3-0.7-0.7-0.7-1L2.3,6l0.1,0l0.2,0h0L2.6,6L2.5,5.9L2.3,5.8
		L2.2,5.6c0,0-0.1-0.2-0.2-0.4L1.8,4.9L1.7,4.7L1.6,4.6L2,4.5c0.2,0,0.3,0.1,0.4,0.4c0.1,0.2,0.2,0.3,0.2,0.3l0-0.1L2.6,4.7l0-0.3
		l0-0.2L2.4,4.2L2.3,4L2.2,3.8l0-0.2c0.1-0.5,0.2-0.6,0.2-0.8l0-0.1L2.5,2.8z"/>
	<path class="st1" d="M3.9,11.5l-0.4-0.1l-0.2-0.1c-0.2-0.1-0.3-0.1-0.5-0.1c-0.2,0-0.3,0.1-0.5,0.2l0.1,0.1l0.2,0.2l0.2,0.2
		l0.2,0.1C3.4,11.9,3.6,11.8,3.9,11.5"/>
	<path class="st1" d="M8.6,13.7l0.2-0.3c0.3-0.3,0.5-0.5,0.5-0.7v-0.1v-0.1l0.1-0.2l0.1,0l0.1,0.1l0.1,0.1l0.2-0.1l0.1-0.2l0.1-0.2
		l0-0.1l-0.1-0.2l0-0.2l0.1-0.1l0.1,0l0.1,0.1l0.1,0l0.1-0.1l0.1-0.2l0-0.1L10.4,11l-0.2-0.1c-0.2-0.1-0.4-0.4-0.4-0.8l0-0.1L10,9.8
		l0-0.2L9.9,9.2L9.8,9C9.7,8.8,9.7,8.7,9.6,8.7l-0.1,0l-0.1,0L9.3,8.9L9.2,9.1L9,9.1L8.8,9.6c0,0.3,0,0.4,0.4,1.1
		c0.2,0.3,0.2,0.5,0.2,0.7c0,0.5-0.4,0.9-1.3,1.1l-0.6,0.1c-0.4,0.1-0.7,0.4-0.7,0.9c0.2-0.1,0.2-0.1,0.5-0.1l0.2,0h0l0.3-0.2
		l0.4-0.3l0.2-0.1l0.2-0.1l0,0l0.1,0.1l-0.1,0.2c-0.1,0.2-0.2,0.3-0.2,0.5L8.6,13.7z"/>
	<path class="st1" d="M7,11.8l0.4,0.3l0.2,0.2l0.2,0l0.1,0c0.2,0,0.3-0.1,0.3-0.1l-0.1-0.1L8,11.9l-0.1-0.1l-0.4-0.1
		C7.3,11.7,7.3,11.7,7,11.8"/>
	<path class="st1" d="M11,12.5L11,12.5l0.2,0l0.1,0l0.1,0c0.3,0,0.5-0.2,0.5-0.5l-0.2-0.1C11.3,11.9,11.1,12.1,11,12.5"/>
	<path class="st5" d="M6.5,4.1l0.1,0.2c0.1,0,0.1-0.1,0.2-0.3C7,3.7,7.2,3.4,7.2,3.3L7.1,3.2l0,0L7,3.3C6.9,3.4,6.8,3.4,6.5,3.5
		L6.4,3.7l0,0.1L6.4,4L6.5,4.1z"/>
	<path class="st5" d="M5.7,3.5l0.2,0.1L6,3.7l0,0.1l0,0.3c0,0.2-0.2,0.2-0.2,0.2L5.6,4.1L5.4,3.8C5.3,3.7,5.2,3.5,5.2,3.3v0l0.1-0.1
		l0.1,0.1L5.7,3.5z"/>
	<path class="st5" d="M6.2,4.8L6.2,4.8L6,4.8L5.8,4.7l-0.2,0L5.5,4.8c0,0.1,0,0.3,0.2,0.5l0.2,0.4C5.9,6,6.1,6.2,6.3,6.2
		c0.2,0,0.2-0.2,0.3-0.4c0.2-0.6,0.4-0.7,0.4-0.9L6.8,4.7l-0.1,0L6.4,4.8L6.2,4.8z"/>
	<polygon class="st1" points="6.4,5.1 6.2,5.1 6,5.1 6,5.1 5.9,5.2 6,5.5 6,5.7 6.2,5.9 6.4,5.7 6.5,5.4 6.5,5.2 6.4,5.1 6.4,5.1 	
		"/>
	<path class="st0" d="M34.6,8l0,0.2l0.1,0.4c0.2,0.7,0.3,0.9,0.6,0.9c0.2,0,0.4-0.1,0.4-0.3L35.9,9L36,8.9c0.1,0,0.2,0.1,0.2,0.4
		c0,0.1,0,0.3,0.1,0.6c0,0.2,0,0.4,0,0.6l-0.1,0.3l0,0.1c0,0.2,0.1,0.3,0.1,0.4c0,0.5,0,0.7-0.1,0.9c0.1,0.2,0.1,0.3,0.1,0.4
		c0,0.1,0,0.2,0,0.4l0,0.4l0,0.2l0,0.1l0,0.1l-0.2-0.1l-0.3-0.1l-0.3-0.2c-0.2,0.2-0.3,0.2-0.5,0.3c-0.4,0.1-0.5,0.2-0.6,0.2
		L34,14.1c-0.1,0-0.2-0.2-0.2-0.4c0-0.4,0-0.6,0.1-0.7c-0.2-0.1-0.4-0.1-0.4-0.1l-0.2,0l-0.1,0l-0.1-0.1c0-0.1,0.1-0.4,0.2-0.6
		c0.2-0.3,0.4-0.5,0.6-0.5l0.4-0.1c0.3-0.1,0.4-0.2,0.4-0.4c0-0.2-0.1-0.3-0.4-0.4L34,10.6l-0.5-0.2l-0.3-0.2l-0.1,0l-0.2,0.2
		c0,0.2,0.2,0.4,0.4,0.4l0.1,0l0.1,0l0.1,0.1c0,0.2-0.1,0.6-0.3,0.8l-0.1,0.2l-0.1,0.1c0,0.3-0.3,0.8-0.7,1L32.3,13l-0.1,0.2
		L32,13.4l-0.3,0.3l-0.2,0.2l-0.1,0.2l-0.1,0.1c-0.1,0-0.2-0.1-0.3-0.3l-0.2-0.2l-0.2,0l-0.2,0h-0.4c-0.2,0-0.5,0.1-0.7,0.1l-0.1,0
		L29,13.7c0-0.4,0.3-1,0.7-1.3c-0.1-0.2-0.2-0.4-0.3-0.4l-0.2-0.1l0-0.1c0-0.1,0.1-0.2,0.3-0.2c0.3-0.2,0.4-0.2,0.6-0.2
		c0.2,0,0.4,0.1,0.6,0.3c0.3,0.3,0.4,0.3,0.6,0.3c0.3,0,0.5-0.2,0.5-0.5c0-0.2-0.1-0.4-0.3-0.6c-0.3-0.4-0.4-0.7-0.4-1
		c0-0.2,0-0.4,0.3-0.7l0-0.1l-0.2-0.1c-0.1,0-0.3,0-0.5,0.1C30.2,9.2,30,9.3,30,9.4l0.1,0.1l0.1,0.1l0,0l-0.1,0.1
		c0,0-0.1,0.1-0.2,0.3c-0.2,0.2-0.3,0.4-0.5,0.5l-0.1,0.1l-0.1,0.2c-0.1,0.2-0.3,0.4-0.5,0.5l-0.2,0.1l-0.1,0.2
		c-0.1,0.2-0.3,0.5-0.4,0.6l-0.3,0.3c-0.1,0.1-0.2,0.4-0.4,0.7c-0.1,0.3-0.2,0.4-0.2,0.4L27,13.8c-0.2-0.3-0.4-0.4-0.6-0.4l-0.1,0.1
		l-0.3,0.1l-0.4,0.1c-0.4,0.1-0.5,0.1-0.7,0.4l-0.1,0.1L24.7,14l0-0.1c0,0,0-0.1,0.1-0.3c0.1-0.3,0.2-0.6,0.2-0.8l0.2-0.4l0.1-0.2
		c0-0.3-0.3-0.5-0.7-0.6l-0.1-0.1l0.2-0.3c0.3-0.2,0.5-0.3,0.7-0.3c0.1,0,0.3,0,0.6,0.1l0.3,0.1l0.3,0.1c0.3,0,0.6-0.3,0.9-0.8
		c0.2-0.3,0.2-0.4,0.2-0.6c0-0.3-0.1-0.5-0.4-0.5c-0.2,0-0.4,0.1-0.5,0.2l-0.2,0.4l0,0.1l0,0.1l-0.1,0.1c-0.1,0-0.2-0.1-0.4-0.3
		l-0.3-0.4c-0.4-0.4-0.4-0.6-0.5-1c-0.4-0.5-0.5-0.8-0.5-1.1l0-0.2c-0.3-0.4-0.4-0.5-0.4-0.8l0.1-0.3c-0.1-0.2-0.2-0.3-0.2-0.5
		l-0.1-0.3L24,4.7l-0.1-0.2c0-0.1,0.1-0.2,0.4-0.3l0.1,0l0-0.3l0-0.3l0.1-0.4l0-0.4c0-0.1,0-0.2-0.1-0.4l-0.1-0.3L24.3,2l0.1-0.1
		l0.1,0c0.4,0.2,0.9,0.6,1.2,0.9c0.3,0.3,0.4,0.6,0.4,1.2c0.4,0.3,0.5,0.5,0.5,0.9c0,0.2-0.1,0.5-0.2,0.7c-0.2,0.2-0.2,0.4-0.2,0.4
		L26,6.5c0,0.2,0.1,0.4,0.2,0.7c0.2,0.3,0.3,0.5,0.5,0.5c0.3,0,0.6-0.6,0.6-1.2l0-0.1V6.1l0-0.3l0-0.4l0-0.3l0-0.2
		c0-0.1,0-0.2-0.4-0.6c-0.4-0.4-0.6-0.8-0.6-1.2c0-0.3,0.3-0.6,0.6-0.6l0.3,0V2.6l0-0.3L27.4,2c0.1-0.3,0.1-0.3,0.2-0.3l0.1,0
		L27.9,2l0.3,0.2l0.1,0.1l0.2-0.3l0.2-0.2l0.1-0.2l0.1-0.1l0.1-0.1l0.1,0.2L29,1.6l0.2,0.1c0.1,0.1,0.2,0.3,0.3,0.5L29.7,2l0.2-0.1
		L30,1.8l0.1,0.1l0.1,0.2c0.2,0.3,0.2,0.3,0.2,0.5l0,0.1v0.1c0.4,0.1,0.5,0.3,0.5,0.8c0,0.3-0.1,0.7-0.5,1c-0.2,0.2-0.2,0.3-0.2,0.5
		c0,0.9,0.6,1.4,1.7,1.4l0.8,0c0.5,0,0.8,0.1,1.3,0.2c0.6,0.2,0.7,0.2,0.9,0.2l0.2-0.2c0-0.2-0.3-0.3-1.3-0.6
		c-2-0.6-2.8-1.4-2.8-2.7c0-1,0.9-1.8,2-1.8c0.3,0,0.9,0.1,1.2,0.2l0.5,0.2l0.3,0c0.2,0,0.2-0.1,0.3-0.4l0.1-0.2
		c0.1,0,0.4,0.2,0.6,0.4c0.2,0.3,0.3,0.6,0.3,0.8c0,0.3-0.1,0.5-0.4,0.6C35.6,3.8,35.2,4,34.8,4c-0.3,0-0.9-0.2-1.7-0.7
		c-0.3-0.2-0.4-0.2-0.6-0.2c-0.2,0-0.4,0.1-0.4,0.3c0,0.2,0.1,0.3,0.5,0.4c0.6,0.2,0.7,0.3,0.9,0.5c0.6,0.1,0.9,0.2,1.3,0.5
		c1.1,0.4,1.7,1,1.7,1.9c0,0.8-0.5,1.4-1.3,1.4C35,8.1,34.9,8.1,34.6,8"/>
	<path class="st1" d="M35.8,13.3l0-0.2l0-0.2c0-0.2,0-0.3,0-0.5l-0.1-0.2L35.6,12l-0.1-0.3l0.1-0.1l0.1,0l0.1,0.1l0.1,0
		c0.1,0,0.1-0.1,0.1-0.3c0-0.3-0.1-0.5-0.2-0.6l-0.2-0.1l0-0.1l0.1-0.1l0.1,0l0.1,0l0,0l0.1-0.1l0,0l0-0.3c0-0.3-0.1-0.4-0.2-0.4
		l0,0l-0.3,0.1l-0.1,0c-0.4,0-0.8-0.4-0.9-0.8l-0.2-0.8c-0.1-0.2-0.3-0.5-0.6-0.7l-0.3-0.1l-0.2,0l-0.1-0.1l0.1-0.1
		c0.3,0,0.6,0.1,1.1,0.2c0.4,0.1,0.6,0.2,0.8,0.2c0.6,0,1-0.3,1-0.8c0-0.3-0.1-0.6-0.2-0.8c-0.1-0.2-0.3-0.4-0.6-0.5l-0.1,0
		l-0.1,0.1l0,0.2v0L35,5.8l-0.2-0.2c-0.2-0.5-0.6-0.8-1-0.8l-0.1,0.1L33.8,5l0.1,0.2l0,0.1l-0.1,0l-0.2-0.1L33.5,5l-0.2-0.2
		c-0.1-0.2-0.3-0.3-0.5-0.4l-0.3-0.2l-0.2,0l-0.1,0.1l0.1,0.1l0.1,0.2l-0.1,0.1c-0.1,0-0.2-0.2-0.5-0.4c-0.2-0.2-0.2-0.4-0.2-0.7
		c0-0.5,0.4-0.9,0.9-0.9c0.3,0,0.6,0.1,0.9,0.3l0.6,0.4c0.2,0.1,0.5,0.2,0.7,0.2c0.1,0,0.1,0,0.3-0.1l0.2-0.1l0-0.1l-0.1-0.1
		c-0.3,0-0.8-0.2-1.2-0.5c-0.2-0.1-0.3-0.2-0.4-0.2l-0.2-0.1l0.1,0l0.1,0l0.5,0.2l0.5,0.2c0.2,0.1,0.6,0.2,0.8,0.2
		c0.2,0,0.4-0.2,0.4-0.4l-0.1-0.3L35.6,2l-0.1,0.1l0,0.1l0,0.2l-0.2,0.3l-0.2,0l-0.8-0.3C33.6,2.1,33.4,2,33,2c-1,0-1.7,0.6-1.7,1.5
		c0,1,0.7,1.6,2.4,2.2c1.6,0.6,1.9,0.7,1.9,1.1c0,0.2-0.2,0.5-0.5,0.5l-0.3,0c-0.1,0-0.3-0.1-0.8-0.2c-0.5-0.1-0.9-0.2-1.5-0.2
		c-1.2,0-1.8,0.2-2.4,0.8l-0.4,0.2l-0.1,0l-0.2,0L29.1,8l-0.2,0.3l-0.1,0.1c-0.1,0-0.2-0.1-0.3-0.4l-0.2-0.4l-0.3-0.2l-0.1-0.1
		l0.1-0.1L28,7.1l0.1-0.1l0-0.1l0.1-0.1c0.1,0,0.1,0.1,0.1,0.4l0.1,0.3l0.1,0.3l0.1,0.1c0.1,0,0.3-0.3,0.3-0.6
		c0-0.3,0.1-0.3,0.1-0.3c0,0,0.1,0,0.2,0.2l0.1,0.2l0.1,0.1h0c0.1,0,0.1-0.1,0.2-0.3l0-0.1l0-0.2l0-0.1l0.1-0.1l0.1,0L30,6.7
		l0.2,0.1l0.2-0.1l-0.1-0.3l-0.1-0.2C30,6.1,30,6,29.9,6l-0.1,0l-0.2,0.1l-0.1,0l0,0c0-0.1,0.1-0.3,0.2-0.5c0.1-0.1,0.2-0.5,0.2-0.9
		L30,4c0-0.4,0.1-0.5,0.1-0.5l0,0l0,0.2v0.1l0,0.3l0.2-0.2l0.1-0.2l0.1-0.3c0-0.3-0.1-0.4-0.5-0.5L30,3l0-0.1V2.7l0-0.1l0-0.1
		l-0.1-0.1l-0.1,0.1c-0.2,0.2-0.3,0.2-0.4,0.3l-0.2,0.2l-0.1-0.1l0-0.2l0,0c0-0.3-0.1-0.5-0.4-0.7l-0.1,0.1L28.6,2l-0.1,0.2
		l-0.1,0.4v0l0,0l-0.1,0.1l0,0l-0.1-0.1L28,2.5l-0.2-0.1l-0.1-0.1c-0.1,0.3-0.1,0.3-0.1,0.6V3l-0.1,0.2l-0.1-0.1L27.2,3
		c-0.2,0-0.3,0.2-0.3,0.4c0,0.2,0,0.4,0.2,0.6l0.3,0.3l0-0.3l0-0.2l0-0.1l0.1-0.1c0.1,0,0.1,0.1,0.2,0.3l0.1,0.4l0.1,0.6l0.1,0.5
		c0.1,0.2,0.2,0.4,0.2,0.4L28.3,6l-0.1,0.1l-0.1,0L28,6l-0.1,0c-0.2,0-0.2,0.2-0.2,1c0,0.5,0.1,1.2,0.2,1.5l0.3,0.6l0.1,0.3
		c0,0.9-1.2,2.3-2.5,2.9c-0.5,0.2-0.6,0.5-0.7,1.2c0.2-0.1,0.3-0.1,0.4-0.2c0.4-0.1,0.4-0.2,0.5-0.3l0-0.2c0-0.1,0.1-0.1,0.3-0.2
		l0.2-0.2l0.1-0.2l0.1,0.1l0,0l-0.1,0.3l0,0.1c0,0.3,0.1,0.5,0.4,0.6l0-0.1c0-0.2,0.1-0.3,0.1-0.4l0.2-0.3c0.1-0.1,0.1-0.2,0.1-0.5
		l0-0.4l0-0.1l0.1-0.1l0.1,0l0,0.2l0.1,0.1c0.1,0,0.3-0.1,0.4-0.4l0.1-0.3l0-0.4l0-0.1l0.1-0.1l0.1,0l0.1,0.3l0.2,0.2
		c0.2,0,0.4-0.4,0.4-0.8c0-0.3,0-0.3,0.1-0.3l0.1,0l0,0.2l0.1,0.1l0.2-0.1l0.1-0.2l0-0.1l-0.1-0.2l-0.1-0.3c0-0.2,0.1-0.4,0.3-0.7
		c0.2-0.3,0.2-0.4,0.3-0.4L30,8.3l0,0.1l0,0.1L30,8.6l0.2-0.1l0.3-0.1C30.8,8.3,31,8.3,31,8.3l0.2,0l0.2,0l0.3,0l0.2-0.2l-0.1-0.2
		l-0.1-0.2l-0.1-0.1l0-0.1l0.1,0c0.1,0,0.3,0.2,0.5,0.5c0.9,1.5,1.4,2,2.1,2.3c0.7,0.2,0.9,0.4,0.9,0.8c0,0.2-0.1,0.5-0.4,0.9
		c-0.5,0.7-0.7,1.1-0.7,1.5l0,0.1l0.1-0.1l0.2-0.1l0.3-0.1l0.2-0.3l0,0l0-0.3l0,0l0.2-0.3l0.1,0.1l0.2,0.4
		C35.5,13.1,35.6,13.2,35.8,13.3"/>
	<path class="st1" d="M25.9,5l0,0.2l0,0.1c0,0.2,0,0.3,0.1,0.3l0.3-0.3L26.3,5l-0.1-0.2l-0.2-0.2C26,4.5,25.9,4.7,25.9,5"/>
	<path class="st1" d="M25.1,2.8l0.2,0.2c0.2,0.2,0.4,0.8,0.4,1.2l0,0.2l0,0.6l0,0.5c0,1.6,0.5,2.7,1.1,2.7c0.2,0,0.4-0.2,0.5-0.4
		l0.1-0.1l0.1,0.1l0,0.3l0,0.2l0,0.3l0,0.2c0,0.1,0,0.1-0.3,0.2L26.9,9c-0.2,0.1-0.3,0.2-0.3,0.2l-0.1,0.3l-0.1,0.1
		c-0.1,0-0.2-0.1-0.3-0.3c-0.1-0.2-0.2-0.3-0.2-0.4L26,8.8l0,0l0.1,0l0.1,0l0.1,0l0.1-0.1l0-0.1l-0.5-0.2c-0.1-0.1-0.3-0.2-0.4-0.4
		c-0.1-0.2-0.2-0.4-0.2-0.5l0.1-0.1l0.1,0l0.1,0l0.1,0l0-0.1l-0.1-0.1c-0.5-0.3-0.7-0.7-0.7-1L24.9,6L25,6l0.2,0L25.3,6l-0.1-0.1
		c-0.3-0.2-0.4-0.2-0.6-0.7c-0.1-0.3-0.2-0.5-0.4-0.6l0.4-0.1c0.2,0,0.3,0.1,0.4,0.4c0.1,0.2,0.2,0.3,0.2,0.3l0-0.1l-0.1-0.4l0-0.3
		l0-0.2L25,4.2l-0.2-0.4l0-0.2l0.1-0.3C24.9,3.1,25,2.9,25,2.8V2.7L25.1,2.8z"/>
	<path class="st1" d="M26.5,11.5c-0.3,0-0.3-0.1-0.6-0.2c-0.2-0.1-0.3-0.1-0.5-0.1c-0.2,0-0.3,0.1-0.5,0.2l0.1,0.1l0.2,0.2l0.2,0.2
		l0.2,0.1C26,11.9,26.2,11.8,26.5,11.5"/>
	<path class="st1" d="M31.2,13.7l0.2-0.3c0.3-0.3,0.5-0.5,0.5-0.7v-0.1v-0.1l0.1-0.2l0.1,0l0.1,0.1l0.1,0.1c0.1,0,0.1-0.1,0.3-0.3
		l0.1-0.2l0-0.1l-0.1-0.2l0-0.2l0.1-0.1l0.1,0l0.1,0.1l0.1,0l0.2-0.1l0.1-0.2l0-0.1L33,11l-0.2-0.1c-0.2-0.1-0.4-0.4-0.4-0.8l0-0.2
		l0.1-0.2l0-0.2l-0.1-0.4L32.4,9c-0.1-0.2-0.1-0.2-0.2-0.2l-0.2,0.1l-0.1,0.1l-0.2,0.2l-0.2,0.1c-0.1,0.1-0.2,0.3-0.2,0.5
		c0,0.3,0.1,0.4,0.5,1.1c0.2,0.3,0.2,0.5,0.2,0.7c0,0.5-0.5,0.9-1.3,1.1c-1,0.2-1.2,0.4-1.3,1c0.2-0.1,0.2-0.1,0.5-0.1l0.2,0h0
		l0.3-0.2l0.4-0.3l0.2-0.1l0.2-0.1l0,0l0.1,0.1l-0.1,0.2l-0.2,0.4L31.2,13.7z"/>
	<path class="st1" d="M29.7,11.8l0.4,0.3l0.2,0.2l0.2,0l0.1,0c0.2,0,0.3-0.1,0.3-0.1l-0.1-0.1l-0.1-0.1l-0.1-0.1l-0.4-0.1
		C30,11.7,29.8,11.7,29.7,11.8"/>
	<path class="st1" d="M33.6,12.5L33.6,12.5l0.2,0l0.1,0l0.1,0l0.2-0.1l0.2-0.3l0-0.1l-0.2-0.1C33.9,11.9,33.7,12.1,33.6,12.5"/>
	<path class="st5" d="M29.1,4.1l0.1,0.2c0.1,0,0.1-0.2,0.3-0.4c0.2-0.3,0.3-0.5,0.3-0.7l-0.1-0.1l0,0l-0.1,0.1l-0.4,0.2L29,3.7
		l0,0.1L29.1,4L29.1,4.1z"/>
	<path class="st5" d="M28,3.2l-0.1-0.1l-0.1,0.1l0,0l0,0.2C27.9,3.7,28,3.8,28,3.8l0.2,0.3l0.3,0.2h0l0.1,0l0-0.2l0.1-0.2l0-0.1
		l-0.1-0.1l-0.2-0.1L28,3.2z"/>
	<path class="st5" d="M28.8,4.8L28.8,4.8l-0.2,0l-0.1-0.1l-0.2,0l-0.2,0.2c0,0.1,0.1,0.3,0.2,0.5l0.2,0.4c0.1,0.3,0.3,0.5,0.5,0.5
		c0.2,0,0.3-0.1,0.4-0.4l0.1-0.5l0.2-0.4l-0.3-0.3l-0.1,0l-0.2,0.1L28.8,4.8z"/>
	<polygon class="st1" points="29,5.1 28.8,5.1 28.6,5.1 28.6,5.1 28.5,5.2 28.6,5.5 28.7,5.7 28.8,5.9 29,5.7 29.1,5.4 29.1,5.2 
		29.1,5.1 29,5.1 	"/>
	<path class="st0" d="M12.3,30.9c0.1,0.3,0.1,0.4,0.2,0.6l0,0.5c0,0.5,0.2,0.8,0.5,0.8l0.3-0.1l0.1-0.1l0.1,0l0.1,0.2l0,0.2
		c0,0.1,0,0.3,0.1,0.6l0,0.5c0,0.3,0,0.4-0.1,0.6c0.1,0.2,0.1,0.5,0.1,0.7c0,0.3,0,0.4-0.1,0.6c0,0.2,0.1,0.3,0.1,0.4
		c0,0.1,0,0.3,0,0.5c0,0.3-0.1,0.4,0,0.6v0l-0.1,0.1l-0.1-0.1l-0.2-0.1c-0.1,0-0.1,0-0.2,0.4c0,0.1-0.1,0.3-0.3,0.4l-0.2,0.4
		l-0.1,0.3l-0.1,0.1l0,0c-0.2,0-0.4-0.4-0.7-1.2c-0.1-0.2-0.1-0.3-0.3-0.3L11,37.3l-0.1,0.2l-0.1,0c-0.1,0-0.2-0.2-0.3-0.4
		c-0.1-0.2-0.1-0.4-0.1-0.6c0-0.4,0.3-0.7,1.1-1.1c0.4-0.2,0.5-0.5,0.5-0.9c0-0.4-0.1-0.6-0.4-0.8c-0.3-0.2-0.4-0.3-0.5-0.3
		l-0.2,0.2l0.2,0.2c0.2,0.1,0.3,0.1,0.3,0.2c0,0.1-0.1,0.2-0.2,0.4c-0.1,0.2-0.2,0.3-0.4,0.4c-0.1,0.3-0.2,0.5-0.6,0.8
		c-0.1,0.2-0.1,0.3-0.2,0.4l-0.3,0.3l-0.2,0.4c0,0.2,0,0.2-0.1,0.2c-0.1,0-0.3-0.2-0.5-0.4l-0.2-0.4c-0.1,0.1-0.2,0.1-0.4,0.1
		L8,36.4c-0.2,0.1-0.2,0.1-0.3,0.1l-0.1-0.1l0-0.3c0-0.4,0.1-0.8,0.4-1.1c-0.2-0.2-0.4-0.3-0.6-0.3l-0.1,0l0.1-0.2l0.2-0.2
		C7.8,34.1,8.1,34,8.3,34C8.5,34,8.7,34,9,34.1l0.3,0.1L9.5,34c0-0.2-0.1-0.6-0.4-1.1c-0.2-0.4-0.2-0.6-0.2-0.8c0-0.4,0.2-0.9,0.4-1
		L9.1,31l-0.4,0.1l-0.3,0.3l0.1,0.1l0.1,0.2c0,0.3-0.2,0.7-0.6,1C8,33,7.8,33.3,7.4,33.5c0,0.2-0.1,0.3-0.3,0.6
		c-0.3,0.4-0.4,0.6-0.4,0.8l-0.1,0.2l-0.3-0.2l-0.2-0.2c-0.1-0.1-0.1-0.2-0.1-0.4l-0.2,0l-0.2,0l-0.1,0c-0.3,0-0.5,0.1-0.7,0.1
		l-0.1,0c-0.1,0-0.1-0.2-0.1-0.4c0-0.4,0.1-0.8,0.4-1.2l-0.2-0.2l-0.1-0.1l-0.1-0.1l-0.1-0.1c0-0.1,0.2-0.2,0.4-0.4
		c0.2-0.2,0.4-0.2,0.6-0.2c0.2,0,0.3,0.1,0.6,0.3l0.4,0.2l0.2-0.1L6.6,32c0-0.2-0.3-0.6-0.6-0.8C5.8,31.1,5.5,31,5.3,31
		c-0.3,0-0.6,0.2-0.8,0.4l-0.1,0.3l-0.1,0.1c-0.1,0-0.1,0-0.4-0.4l-0.3-0.4l-0.2-0.3l-0.1-0.2l-0.1-0.1c-0.2-0.2-0.4-0.5-0.5-1
		l0-0.2c-0.3-0.4-0.5-0.8-0.5-1.2l0-0.2C2,27.8,2,27.8,1.9,27.3c-0.1-0.3-0.2-0.5-0.3-0.6l0-0.1l0.3-0.1l0.2,0l0.2,0l0-0.3
		c0-0.2,0-0.3,0.1-0.6l0-0.3l0-0.2l0-0.2l0-0.1l0.1-0.1l0.2,0.1c0.2,0.1,0.4,0.2,0.5,0.3c0.4,0.3,0.7,0.8,0.7,1.1l0,0.1l0,0.2
		l0.1,0.2L4,26.9l0.2,0.5c0,0.1,0,0.2-0.2,0.4c-0.1,0.2-0.2,0.4-0.2,0.5c0,0.2,0.1,0.5,0.2,0.8c0.1,0.3,0.3,0.4,0.5,0.4
		c0.3,0,0.4-0.2,0.4-0.9C4.9,28.3,5,28,5,27.7l0-0.2l-0.1-0.2l-0.4-0.4c-0.3-0.4-0.5-0.6-0.5-0.9c0-0.3,0.2-0.6,0.5-0.6l0.1,0v-0.1
		L4.8,25C4.9,24.7,5,24.5,5,24.5l0.1,0.1l0.2,0.1l0.2,0.1c0.1-0.2,0.1-0.3,0.2-0.4C6,24.2,6.1,24,6.2,24l0.2,0.1l0.2,0.2l0.1,0.2
		l0,0.1L7,24.7l0.2-0.1l0.2-0.1l0.1-0.1c0,0,0.1,0.1,0.2,0.5c0.1,0.3,0.1,0.3,0.1,0.5c0.4,0.1,0.6,0.3,0.6,0.7
		c0,0.4-0.2,0.8-0.6,1.2l-0.1,0.3c0,1.1,0.4,1.4,1.7,1.6c0.8,0.1,1.1,0.1,2.1,0.4c0.5,0.2,0.8,0.2,1,0.2c0.2,0,0.4-0.1,0.4-0.2
		c0-0.2-0.2-0.3-1.1-0.5c-2.2-0.5-3.1-1.2-3.1-2.7c0-1.1,0.8-1.8,1.8-1.8c0.5,0,0.9,0.1,1.5,0.5c0.6,0.4,0.7,0.4,0.9,0.4
		c0.2,0,0.2-0.1,0.2-0.4l0.2-0.3l0.4,0.3c0.2,0.2,0.3,0.4,0.3,0.7c0,0.4-0.2,0.7-0.7,0.9L13,26.7c-0.2,0.3-0.5,0.4-0.9,0.4
		c-0.3,0-0.8-0.1-1.1-0.4l-0.6-0.4c-0.3-0.2-0.4-0.3-0.6-0.3c-0.2,0-0.4,0.1-0.4,0.4c0,0.2,0.2,0.4,0.4,0.5l0.5,0.2
		c0.2,0.1,0.3,0.1,0.5,0.2l0.3,0c0.3,0,0.7,0.1,1,0.3l0.2,0.1l0.3,0.1c0.7,0.2,1.2,1,1.2,1.7c0,0.9-0.6,1.4-1.5,1.4L12.3,30.9z"/>
	<path class="st1" d="M12.1,38.1l0.1-0.1l0.2-0.2c0.1-0.2,0.2-0.4,0.2-0.6l-0.1-0.4l-0.1-0.2l0.1-0.1l0.1,0.1l0.2,0.2l0.3,0.2l0-0.2
		l0-0.2c0-0.3-0.1-0.6-0.3-0.8l-0.1-0.2l0.1-0.1l0,0l0.2,0.1l0.1-0.3c0-0.2-0.1-0.5-0.2-0.7l-0.1-0.2l0-0.1l0.1-0.1l0.2,0.1l0.1,0
		c0.1,0,0.1-0.1,0.1-0.5l0-0.1l0-0.2c0-0.3,0-0.3-0.1-0.3h-0.1c-0.6,0-0.9-0.4-1-1.4c-0.1-0.7-0.4-1.2-0.7-1.4
		c-0.2-0.1-0.3-0.1-0.3-0.2l0.1-0.1l0.2,0.1c0.5,0.2,0.9,0.3,1.2,0.3c0.6,0,1-0.4,1-1c0-0.4-0.2-0.8-0.6-1.2l-0.3-0.2l0,0l-0.1,0
		l0,0.2l0,0.1l0,0l-0.1,0l-0.1,0l-0.2-0.3c-0.2-0.3-0.6-0.5-0.8-0.5l-0.2,0.1l0.1,0.1l0.1,0.2l0,0l0,0l0,0c-0.1,0-0.1,0-0.4-0.3
		c-0.2-0.2-0.7-0.5-0.9-0.5l-0.1,0l0,0l0.1,0.1l0.1,0.2l-0.1,0c-0.1,0-0.2-0.1-0.5-0.3c-0.5-0.4-0.7-0.7-0.7-1.1
		c0-0.5,0.3-0.8,0.8-0.8c0.3,0,0.6,0.1,0.8,0.3l0.6,0.4c0.3,0.2,0.6,0.3,1,0.3l0.2,0l0.1-0.1l-0.1-0.1c-0.2-0.1-0.4-0.1-0.5-0.2
		l-0.6-0.5c-0.2-0.2-0.4-0.3-0.5-0.3c-0.3-0.2-0.4-0.2-0.4-0.2l0.1,0l0.1,0l0.3,0.1c0.1,0,0.3,0.1,0.5,0.3c0.6,0.4,1,0.6,1.4,0.6
		c0.4,0,0.6-0.3,0.6-0.6l0-0.2l-0.1-0.1l-0.1-0.1l0,0l0,0.3l0,0.1L13,25.8l-0.2,0.1c-0.2,0-0.4-0.1-1-0.5c-0.6-0.4-1.1-0.6-1.5-0.6
		c-0.9,0-1.6,0.7-1.6,1.6c0,1.2,0.7,1.8,3.1,2.3c0.9,0.2,1.3,0.5,1.3,0.8c0,0.4-0.3,0.6-0.7,0.6l-0.3,0c-0.1,0-0.5-0.1-1.2-0.3
		c-0.5-0.1-1.1-0.2-1.6-0.2c-0.9,0-1.5,0.3-1.9,0.9l-0.1,0.1l-0.1,0l-0.2-0.1l-0.4-0.2l-0.3,0.1L6,30.3c-0.1,0-0.2-0.2-0.3-0.3
		c-0.1-0.3-0.2-0.6-0.2-0.8l0.1-0.2L5.7,29l0.1,0.4C5.8,29.6,6,29.7,6,29.7l0.2-0.1l0.1-0.2c0.1-0.2,0.1-0.3,0.2-0.3
		c0.1,0,0.1,0,0.2,0.3l0.1,0.2l0.1,0.2L7,29.9c0.1,0,0.2-0.2,0.2-0.4l0,0l0-0.2l0.1-0.1l0.1,0.1l0.2,0.2l0.2,0.1l0.1-0.1l0.1-0.1
		l-0.2-0.2c-0.1-0.1-0.2-0.2-0.2-0.5l-0.1-0.2l-0.1,0l-0.2,0.1l-0.1,0l0,0l-0.1-0.1l0.2-0.3l0.2-0.3c0-0.2,0-0.4,0.1-0.4l0-0.4
		c0-0.2,0.1-0.6,0.2-0.8l0-0.1l0.1,0.2l0,0.1l0,0.1l0.1,0.2l0.2-0.2L8,26.3l0-0.2c0-0.2-0.1-0.4-0.3-0.4l-0.1,0l-0.1,0l-0.1-0.2
		l0-0.2l0-0.2l0-0.3l0-0.1l-0.1,0.1l-0.1,0.1l-0.2,0.2l-0.2,0.1l-0.1,0c-0.1,0-0.1,0-0.1-0.2v0c0-0.2-0.1-0.3-0.3-0.6l-0.1-0.1
		l0,0.1L6,24.7L5.9,25l0,0.2l-0.1,0.1l-0.1-0.1C5.5,25,5.4,25,5.2,24.9l0,0.1l-0.1,0.3l0,0.2v0.1v0.1L5,25.8h0l-0.1-0.1l-0.1,0
		c-0.2,0-0.4,0.1-0.4,0.3c0,0.1,0.1,0.3,0.3,0.6l0.3,0.3L5,26.7l0-0.1l0-0.2L5,26.2c0.1,0,0.2,0.3,0.3,0.7l0,0.4l0.1,0.5
		c0.1,0.2,0.2,0.4,0.3,0.4l0.2,0.2l-0.1,0.1l-0.2-0.1l-0.1,0c-0.2,0-0.3,0.1-0.3,0.6c0,0.5,0.3,1.2,0.7,1.5l0.6,0.4
		C6.8,31.3,7,31.7,7,31.9c0,0.4-0.4,0.7-1.1,0.9L5.5,33c-0.3,0.1-0.4,0.3-0.6,0.9l0.3-0.1l0.1,0l0.2,0l0.3-0.2v-0.1l0.1-0.1l0.2-0.1
		l0.1-0.1l0.1,0l0.1,0.1l0,0.1l-0.1,0.4c0,0.3,0,0.5,0.2,0.7l0-0.2L6.7,34C6.9,33.7,7,33.4,7,33.3l0-0.1l0-0.3L7,32.8l0.1,0l0.1,0.1
		L7.3,33l0.2-0.2l0.1-0.3l0-0.2l0-0.1l0.1-0.1l0.1,0l0.1,0l0.1,0.1l0.1,0l0.2-0.1l0.2-0.3l-0.1-0.1c-0.2-0.2-0.4-0.4-0.4-0.6l0-0.2
		l0.1-0.3L8,30.2l0,0l0.1,0.1l0,0.1L8,30.7l0.1,0.1l0.2,0c0.4-0.2,0.7-0.2,0.8-0.2l0.4,0.2l0.1,0.1l0.1-0.1l0-0.1l-0.1-0.2l-0.1-0.2
		l0.1-0.1c0.2,0,0.5,0.6,0.8,1.6c0.2,0.8,0.3,0.8,1,1.2c0.6,0.3,0.8,0.7,0.8,1.2c0,0.5-0.2,1.2-0.5,2.2c-0.1,0.3-0.1,0.5-0.1,0.6
		c0,0.1,0,0.3,0.1,0.6l0.1,0.3L12.1,38.1z"/>
	<path class="st1" d="M9.2,36.4c0.1-0.2,0.1-0.2,0.2-0.4c0.2-0.3,0.3-0.5,0.3-0.6v-0.2c0-0.2,0-0.3,0.1-0.3l0.1,0l0.1,0.1l0.1,0
		l0.1-0.1l0.1-0.4l0-0.1l0-0.1l0.1-0.1l0.1,0.1l0.1,0.1l0.1-0.1l0.1-0.1l0.1-0.1l0-0.1l-0.1-0.1c-0.2-0.2-0.3-0.4-0.3-0.9
		c0-0.3,0-0.6-0.1-0.7c0,0-0.1-0.2-0.2-0.5L10,31.4l-0.2-0.1c-0.3,0-0.6,0.3-0.6,0.7c0,0.2,0.1,0.6,0.3,1c0.2,0.6,0.3,0.8,0.3,1
		c0,0.4-0.2,0.6-0.8,0.9c-0.7,0.2-1,0.6-1.1,1.2l0.1,0l0.2-0.1l0.2,0l0.3-0.2l0-0.2l0.1-0.1l0.1,0l0.1,0l0,0l0,0.2l0,0.3
		C9,36.1,9.1,36.2,9.2,36.4"/>
	<path class="st1" d="M2.7,25.2l0,0.1l0,0.3l0,0.2c0,0.2,0,0.4,0.1,0.6l0.1,0.3l0,0.1l0,0.1l-0.1-0.1l-0.4-0.2l-0.2,0l0.1,0.1
		l0.2,0.4l0.3,0.4l0.3,0.2l0.1,0.1l0,0.1l0,0l-0.2,0l-0.1,0c0,0,0,0.2,0.1,0.4l0.1,0.4L3,29l0.2,0.2l0.1,0.1l0,0.1l-0.1,0l-0.1,0.1
		c0,0.1,0.1,0.3,0.2,0.5c0.2,0.3,0.3,0.3,0.5,0.3H4l0.1,0.1l-0.1,0.1l-0.2,0.1l0.1,0.1L4,30.9l0.2,0.2L4.4,31l0.4-0.3
		c0.4-0.1,0.5-0.2,0.5-0.2l-0.1-0.1c-0.1-0.2-0.2-0.4-0.2-0.6L5,29.5l-0.1,0.1l-0.4,0.3c-0.4,0-0.9-0.7-1.2-1.5
		c-0.1-0.2-0.1-0.4-0.1-0.7c0-0.2,0-0.5,0.1-0.7c0.1-0.4,0.1-0.6,0.1-0.6l0-0.2C3.4,25.9,3.2,25.5,2.7,25.2"/>
	<path class="st1" d="M3.6,26.9c-0.1,0.2-0.2,0.5-0.2,0.8l0.1,0.3l0.1-0.1l0.1-0.2l0.1-0.1l0.1-0.2L3.6,26.9z"/>
	<path class="st1" d="M4.9,32.3L4.9,32.3l0.2,0.2c0.2,0.2,0.3,0.3,0.4,0.3l0.4-0.1L6,32.6l-0.1-0.1l-0.1-0.1l-0.3-0.2
		C5.3,32.1,5.2,32.2,4.9,32.3"/>
	<path class="st1" d="M7.8,34.5L8,34.7l0.2,0.1l0.2,0l0.1,0l0.3-0.1L9,34.6l0.1-0.1L9,34.4l-0.2-0.1c-0.3-0.1-0.3-0.1-0.4-0.1
		C8.1,34.2,7.9,34.4,7.8,34.5"/>
	<path class="st1" d="M10.8,37c0.1-0.2,0.1-0.2,0.4-0.2c0.3,0,0.6-0.6,0.6-1l0-0.1l-0.1,0l-0.2,0.1L11.2,36
		c-0.2,0.1-0.4,0.4-0.4,0.7L10.8,37z"/>
	<path class="st5" d="M5.6,26.4l0.1,0.2L6,26.8L6,26.7l0-0.2l0-0.2c0-0.2-0.1-0.2-0.4-0.3l-0.2-0.1l-0.1-0.1l0,0l0,0.1l0.1,0.2
		L5.6,26.4z"/>
	<polygon class="st5" points="7.2,25.9 7,26 6.7,26.1 6.5,26.2 6.5,26.5 6.7,26.8 6.7,26.8 6.7,26.7 6.9,26.4 7.1,26.1 7.2,25.9 
		7.2,25.9 7.2,25.9 	"/>
	<path class="st5" d="M6.6,27.3l0.2-0.1l0.1,0L7,27.3c0,0.1-0.1,0.3-0.3,0.6c-0.2,0.3-0.3,0.5-0.4,0.5c-0.2,0-0.4-0.3-0.7-0.7
		l-0.1-0.3l0.2-0.2l0.1,0L6,27.2l0.3,0.1L6.6,27.3z"/>
	<path class="st1" d="M6.3,27.6l-0.1,0l0,0L6,27.7l0.2,0.5l0.1,0.1c0.1,0,0.1-0.1,0.2-0.4l0-0.2l0,0l-0.1-0.1l0,0"/>
	<path class="st0" d="M33.3,30.7c0.2,0.3,0.5,0.5,0.8,0.5l0.3,0l0.2,0l0.1,0.1l-0.1,0.2l-0.1,0.2l0,0.3l-0.1,0.2l-0.2,0.2l0,0.1v0.1
		v0.1c0,0.3-0.1,0.5-0.3,0.6l-0.1,0.1l0,0.1c-0.1,0.2-0.1,0.4-0.1,0.4L33.4,34c-0.1,0.2-0.2,0.3-0.3,0.5l-0.2,0.2l-0.3-0.3l-0.1,0.1
		l-0.1,0.1l-0.2,0.2L32,34.8l-0.1,0.1l-0.1,0c-0.1,0-0.1-0.1-0.2-0.3l-0.1-0.4l-0.1-0.4c0-0.2,0-0.3,0.1-0.4c-0.2,0-0.3,0-0.4,0.1
		l-0.1,0l-0.1-0.1l0-0.2l0.2-0.4c0.1-0.3,0.5-0.6,0.8-0.6l0.3,0.1l0.2,0l0.3-0.2L32.6,32c0,0-0.2-0.1-0.4-0.1
		c-0.2-0.1-0.3-0.1-0.5-0.4c-0.2-0.2-0.2-0.2-0.3-0.2l-0.1,0.1l0,0.2l0,0.1c0,0.3-0.1,0.7-0.3,1.1l-0.3,0.6
		c-0.2,0.3-0.2,0.5-0.2,0.7c0,0.2,0.1,0.5,0.2,0.5l0.2,0l0.1,0l0,0.1l-0.1,0.1L30.6,35c-0.2,0.3-0.3,0.4-0.6,0.4
		c-0.1,0.4-0.4,0.6-0.8,0.7l-0.1,0.1c-0.1,0.3-0.5,0.5-0.7,0.5h0c0,0.2-0.2,0.5-0.4,0.6l-0.3,0.2l-0.1,0.1l-0.2,0.2
		c-0.1,0-0.2-0.1-0.3-0.4l-0.1,0.1l-0.2,0.2c-0.1,0-0.2,0.1-0.4,0.1c-0.3,0.1-0.6,0.2-0.6,0.3l-0.1,0.2l0,0l-0.2-0.2
		c-0.1-0.2-0.1-0.5-0.1-0.7c0-0.4,0.1-0.7,0.6-1.2v-0.1c0-0.7,0.5-1.1,1.3-1.1l0.1,0l0.4,0l0,0c0.2,0,0.4-0.1,0.7-0.3
		c0.3-0.2,0.4-0.4,0.4-0.7c0-0.1,0-0.2-0.1-0.5c-0.1-0.2-0.1-0.4-0.1-0.6c0-0.5,0.4-1.1,0.9-1.5l0.2-0.3l0-0.1l-0.2,0.1l-0.3,0.2
		l-0.2,0.1l-0.2,0.1l-0.1,0.1l0,0.1l0,0.1l-0.1,0.1l-0.2,0.3c-0.2,0.3-0.3,0.4-0.5,0.5c-0.1,0.4-0.3,0.6-0.6,0.6
		c-0.2,0.5-0.4,0.6-0.8,0.7c-0.1,0.2-0.2,0.3-0.4,0.6l-0.2,0.2l-0.1,0.2l-0.3-0.2L25.6,35l-0.1-0.2l-0.1-0.1l-0.1,0l-0.3,0L24.5,35
		l-0.1,0.2l-0.1,0c-0.1,0-0.2-0.2-0.2-0.6c0-0.3,0.1-0.6,0.2-0.7l0.3-0.5l0.1-0.2l-0.1-0.2l-0.2-0.1l-0.3,0l-0.1,0l0-0.1l0.3-0.3
		c0.3-0.2,0.5-0.3,0.7-0.3c0.2,0,0.4,0.1,0.6,0.2l0.4,0.2l0.2,0.1c0.2,0,0.3-0.1,0.4-0.3c0.1-0.2,0.2-0.4,0.2-0.6
		c0-0.5-0.3-0.8-0.8-0.8c-0.2,0-0.4,0.1-0.6,0.2l-0.1,0.1l-0.1,0.2l-0.1,0.1c-0.1,0-0.2-0.2-0.3-0.4l-0.2-0.4
		c-0.1-0.2-0.1-0.4-0.1-0.6l0-0.3c-0.2-0.3-0.2-0.4-0.2-0.7c0-0.1,0-0.2,0.1-0.4c-0.1-0.2-0.1-0.3-0.1-0.5l0-0.2l0-0.2l0-0.1
		c-0.1-0.2-0.2-0.3-0.3-0.8c-0.1-0.3-0.1-0.4-0.2-0.5l0-0.1c0-0.1,0.2-0.1,0.4-0.1l0.2,0L24.4,26l0.1-0.5c0.1-0.2,0.1-0.2,0.1-0.3
		l-0.1-0.4l-0.1-0.2l0-0.1l0.1,0c0.2,0,0.7,0.3,1,0.6c0.4,0.3,0.5,0.6,0.5,1.1l0,0.3c0.3,0.3,0.5,0.5,0.5,0.8c0,0.2-0.1,0.3-0.2,0.5
		c-0.3,0.3-0.4,0.5-0.4,0.9c0,0.6,0.2,1,0.5,1c0.3,0,0.6-0.3,0.6-0.8l0-0.5l0.1-0.4l0-0.3c0-0.2-0.1-0.4-0.4-0.7
		c-0.3-0.4-0.5-0.6-0.5-0.9c0-0.4,0.3-0.6,0.6-0.6l0.2,0.1c0-0.2,0-0.3,0.1-0.5c0.1-0.2,0.2-0.4,0.2-0.4l0.1,0l0.2,0.1l0.1,0.1
		l0.1,0.1c0.1-0.3,0.2-0.4,0.4-0.6l0.3-0.2l0.1,0.1l0.1,0.2l0.2,0.2c0.1,0.1,0.1,0.2,0.1,0.4l0.1-0.1l0.2-0.1l0.1-0.1l0.1,0l0.1,0.1
		l0.1,0.3l0.2,0.3l0.1,0.3l0,0.1l0.1,0c0.2,0,0.4,0.3,0.4,0.6c0,0.4-0.3,1-0.8,1.3l-0.1,0.3c0,1,0.3,1.2,1.7,1.4
		c0.4,0.1,0.7,0.1,1,0.2c0,0,0.4,0.1,1,0.3c0.3,0.1,0.5,0.2,0.7,0.2l0.3-0.1c0-0.2-0.2-0.3-1-0.6l-1.1-0.4c-1.1-0.4-1.6-1.1-1.6-2
		c0-1.1,0.8-2,2-2c0.4,0,0.8,0.1,1.4,0.3c0.8,0.3,0.8,0.3,0.9,0.3c0.1,0,0.2-0.1,0.2-0.3c0-0.2,0.1-0.3,0.2-0.3
		c0.1,0,0.3,0.1,0.4,0.4c0.1,0.2,0.2,0.4,0.2,0.6c0,0.4-0.2,0.7-0.6,0.7c-0.3,0.3-0.6,0.5-1,0.5c-0.5,0-0.7-0.1-1.5-0.6
		c-0.3-0.2-0.4-0.2-0.6-0.2c-0.3,0-0.5,0.2-0.5,0.4c0,0.2,0.2,0.4,0.6,0.5c0.2,0.1,0.3,0.1,0.4,0.2l0.2,0c0.4,0,0.9,0.2,1.3,0.6
		c0.7,0.2,1.4,1,1.4,1.7c0,0.7-0.6,1.4-1.4,1.4C34.1,30.9,33.7,30.8,33.3,30.7"/>
	<path class="st1" d="M32.9,34.1l0-0.1l0-0.2l0.1-0.2c0.1-0.2,0.2-0.4,0.2-0.6l-0.1-0.2l0-0.1l0-0.1l0,0l0,0l0.1,0.1l0.1,0.1
		l0.1-0.2l0-0.1L33.6,32l0-0.1l0.1-0.1l0.2,0.1l0.1,0c0.1,0,0.1-0.1,0.2-0.3l0.1-0.2l0-0.1l0,0l-0.1,0c-0.2,0-0.5-0.2-0.7-0.3
		l-0.3-0.4l-0.3-0.4l-0.3-0.2l-0.1-0.1l0.1-0.1c0.1,0,0.3,0.1,0.6,0.2c0.4,0.1,0.9,0.3,1.2,0.3c0.6,0,1.1-0.5,1.1-1
		c0-0.3-0.1-0.6-0.5-1l-0.2-0.1l-0.1,0.1l0,0.1l0,0.1l-0.1,0.1c-0.1,0-0.2-0.1-0.2-0.3c-0.1-0.3-0.2-0.4-0.6-0.6l-0.4-0.1l0,0.1
		l0,0.1l0.1,0.2v0l-0.1,0.1c-0.1,0-0.1,0-0.3-0.3c-0.1-0.1-0.3-0.3-0.5-0.4l-0.2,0h0l-0.1,0l0.1,0.1l0,0.1l-0.1,0.1
		c-0.1,0-0.3-0.2-0.5-0.4c-0.2-0.2-0.3-0.5-0.3-0.7c0-0.5,0.4-0.9,0.9-0.9l0.3,0.1l0.4,0.2l0.5,0.3c0.3,0.2,0.7,0.3,0.9,0.3
		c0.1,0,0.2,0,0.4-0.1l0.2-0.1l0,0l0,0l-0.3,0c-0.1,0-0.5-0.2-0.8-0.3l-0.6-0.4L33,25.4l-0.1-0.1l0.1,0l0.1,0l0.5,0.1
		c0.1,0,0.3,0.1,0.6,0.3c0.5,0.3,0.8,0.4,1.1,0.4c0.3,0,0.5-0.2,0.5-0.5l0-0.3l-0.1-0.2l-0.1,0l-0.1,0.1l0,0.1l0,0.1
		c0,0.2-0.1,0.3-0.3,0.3c-0.2,0-0.5-0.1-1.1-0.3c-0.6-0.2-0.9-0.3-1.3-0.3c-0.9,0-1.7,0.7-1.7,1.6c0,0.7,0.5,1.3,1.5,1.7l1,0.4
		c0.9,0.4,1.2,0.6,1.2,0.9c0,0.3-0.3,0.5-0.7,0.5c-0.2,0-0.4,0-0.8-0.2c-1-0.3-1.6-0.4-2.1-0.4c-0.9,0-1.5,0.2-2,0.8l-0.2,0.1
		l-0.2-0.1l-0.3-0.1l-0.3,0.2L28,30.6l-0.1,0.1l-0.3-0.3L27.5,30l0-0.3l0-0.2l0-0.2l0-0.2l0.1,0l0.1,0.2l0,0.1l0,0.1
		c0,0.3,0.1,0.7,0.3,0.7c0.1,0,0.2-0.2,0.3-0.6l0.1-0.1c0,0,0.1,0.1,0.1,0.2l0.2,0.4l0.1,0.1c0.1,0,0.2-0.1,0.2-0.5l0.1-0.2l0.1,0
		l0.1,0.1l0.1,0.1l0.1,0.1l0.1-0.1l0.1-0.1l-0.1-0.1c-0.1-0.1-0.1-0.2-0.2-0.4l-0.1-0.3l-0.1-0.1l0,0l-0.1,0l-0.3,0.1l-0.1,0
		l-0.1-0.1l0.1-0.1c0.3-0.2,0.5-0.7,0.6-1.2c0-0.4,0.1-0.5,0.2-0.7l0.1-0.1l0.1,0.1l0,0.2l0,0.1l0,0l0,0.1l0.1,0l0.1-0.2l0.2-0.5
		l-0.1-0.3l-0.2-0.1l-0.1,0l-0.1,0l-0.1-0.1l0-0.1l0-0.1l-0.1-0.3L29.6,25l0-0.1L29.4,25l-0.2,0.1l-0.1,0.1
		c-0.2,0.2-0.2,0.2-0.3,0.2l-0.1,0l0-0.1l0-0.3c0-0.2-0.2-0.5-0.3-0.7c-0.3,0.2-0.4,0.5-0.4,0.8v0.1L28,25.4h0L28,25.3l-0.1-0.2
		l-0.2-0.2l-0.1-0.1l0,0.1c-0.1,0.2-0.2,0.4-0.2,0.6l-0.1,0.2l-0.1,0c-0.2-0.1-0.2-0.1-0.3-0.1c-0.2,0-0.4,0.2-0.4,0.4l0.2,0.4
		c0.1,0.2,0.3,0.4,0.3,0.4l0-0.1v0l0-0.2l0-0.2l0,0l0.1-0.1c0.1,0,0.2,0.3,0.3,1c0.1,0.6,0.2,0.9,0.5,1.2l0.1,0.1l0,0l-0.2-0.1
		l-0.1,0l-0.3,0.3l-0.1,0.7l-0.1,1c0,0.2,0,0.4,0.1,0.7c0.1,0.3,0.1,0.5,0.1,0.6c0,0.7-0.5,1.3-1.2,1.5l-0.8,0.2
		c-0.5,0.1-0.7,0.5-0.8,1.1c0.1-0.1,0.2-0.1,0.4-0.1l0.2,0l0.2-0.1l0.1-0.1l0.2-0.2l0.2-0.1l0.1,0.1L25.8,34l-0.1,0.3
		c0,0.2,0,0.3,0.2,0.5l0-0.1l0.2-0.3c0.2-0.2,0.3-0.4,0.3-0.5c0-0.2,0-0.2,0.1-0.2l0.1,0.1l0,0.1l0.1,0l0.1,0l0.2-0.2l0.1-0.2
		l0.1-0.2l0-0.2l0-0.1l0.1,0.1l0.1,0.1h0l0.1-0.1l0.2-0.5l0-0.2l-0.1-0.2l0,0l0.1-0.1l0.2,0.3l0.1,0.1l0.2-0.2l0.1-0.2l0-0.1l0-0.1
		l-0.1-0.1l0-0.1c0-0.2,0.1-0.3,0.2-0.6l0.2-0.3l0.1-0.1l0,0.1l0,0.1V31v0.1l0.1,0.1l0.1,0l0.3-0.1l0.3-0.1c0.5-0.3,0.6-0.3,0.9-0.3
		c0.1,0,0.3,0.1,0.6,0.2l0.1,0l0.1-0.1l0-0.1l-0.1-0.2l-0.1-0.2l0.1-0.1l0.1,0.1c0,0.1,0.1,0.2,0.3,0.5c0.2,0.4,0.5,0.7,0.8,0.7
		l0.5,0.1c0.2,0,0.2,0.1,0.2,0.3c0,0.4-0.2,0.7-0.5,0.9l-0.4,0.3c-0.2,0.1-0.3,0.4-0.3,0.6c0,0.2,0,0.4,0.1,0.6l0.1-0.1l0.2-0.1
		l0.2-0.2l0.1-0.3l0.1-0.2l0.1-0.2l0.1,0.2l0,0v0C32.7,33.7,32.8,33.8,32.9,34.1"/>
	<path class="st1" d="M25.7,37.5c0-0.6,0.2-0.8,1-1.2c1.6-0.8,2.5-1.6,2.5-2.2c0-0.1,0-0.3-0.1-0.7c-0.1-0.2-0.1-0.4-0.1-0.5
		c0-0.3,0.2-0.7,0.5-0.9l0.2-0.2l0.2-0.4l0-0.1l0-0.1l0.2-0.2l0.1,0l0.1,0l0.1,0.1l0.1,0.1l0.1,0.1l0.1,0l0.1,0l0.1,0l0.1,0.1
		c0,0.2-0.2,0.6-0.4,1c-0.5,0.6-0.6,1-0.6,1.4c0,0.3,0.1,0.6,0.3,0.8l0.1,0.1l-0.1,0.2l-0.1,0.1l-0.2,0.2L29.8,35l0-0.1l-0.1-0.1
		l-0.1,0l0,0.1v0.2l-0.1,0.2l-0.2,0.2l-0.1,0.1l-0.1-0.1l-0.1-0.2L29,35.3l-0.1,0.2c0,0.3-0.1,0.4-0.1,0.5l-0.2,0.2l-0.2,0.1l-0.1,0
		L28.3,36l-0.1,0c-0.1,0-0.1,0.1-0.1,0.3c0,0.4-0.1,0.6-0.4,0.8c-0.2,0.1-0.2,0.2-0.3,0.3c-0.1-0.2-0.1-0.3-0.1-0.5l0-0.2l0.1-0.2
		l0-0.1l-0.1,0l-0.2,0.1c-0.2,0.1-0.2,0.2-0.3,0.4c-0.1,0.3-0.2,0.5-0.6,0.5c-0.4,0.1-0.4,0.1-0.6,0.2L25.7,37.5z"/>
	<path class="st1" d="M24.9,25v0.1l0,0.2l0,0.2l0,0.3c0,0.2,0,0.3,0.2,0.6l0.1,0.4l-0.1,0.1l-0.1,0L25,26.7
		c-0.1-0.1-0.2-0.1-0.4-0.1l-0.2,0c0.1,0.2,0.1,0.3,0.1,0.4c0.1,0.4,0.1,0.4,0.3,0.6c0.2,0.2,0.2,0.2,0.2,0.3L25,28l-0.1,0l0,0
		l-0.1,0.3l0.1,0.3l0.1,0.1l0.1,0.1l0,0.1L25,29.1l-0.1,0l-0.1,0l-0.1,0.1l0,0.2l0.1,0.3l0.1,0.2l0.2,0.1l0.2,0.1l0,0.1l-0.1,0.1
		l-0.1,0l-0.1,0L25,30.3l0,0.2l0,0.2c0.1,0.2,0.1,0.3,0.2,0.3l0.1,0c0.2-0.1,0.5-0.3,0.7-0.3c0.2,0,0.5,0,0.6,0.1l0.1,0l0-0.1l0-0.2
		l0-0.4l0-0.3v-0.2l-0.1,0.1c-0.2,0.2-0.3,0.3-0.5,0.3c-0.6,0-0.9-0.6-0.9-1.7c0-0.4,0.1-1.1,0.2-1.8l0-0.3
		C25.6,25.7,25.4,25.3,24.9,25"/>
	<polygon class="st1" points="25.8,27.1 25.8,27.3 25.8,27.4 25.8,27.6 25.8,27.8 25.9,27.6 26,27.5 26.2,27.2 26.1,27 25.9,26.8 	
		"/>
	<path class="st1" d="M24.7,32.7l0.3,0.2c0.2,0.2,0.3,0.2,0.5,0.2l0.2,0l0.2,0l0.1,0L26,33l-0.2-0.2l-0.3-0.2l-0.3-0.1L24.7,32.7z"
		/>
	<path class="st1" d="M26.3,36.1c0-0.4,0.4-0.7,0.9-0.7c0.2,0,0.4,0,0.4,0.1c0,0.1-0.1,0.1-0.3,0.3c0,0-0.1,0.1-0.4,0.2
		c-0.2,0.1-0.3,0.2-0.5,0.3L26.3,36.1z"/>
	<path class="st1" d="M31.3,33.2l0.3-0.1l0.2,0L32,33l0.2-0.1c0.2-0.2,0.3-0.2,0.3-0.2c0-0.1-0.1-0.1-0.3-0.1
		C31.7,32.6,31.5,32.7,31.3,33.2"/>
	<path class="st5" d="M27.6,25.8l0.2,0.1L28,26c0.2,0.1,0.3,0.1,0.3,0.2l0,0.1l0,0.2L28,26.7c-0.1,0-0.2-0.1-0.3-0.4L27.6,25.8
		L27.6,25.8L27.6,25.8"/>
	<polygon class="st5" points="29.2,25.9 29,26.1 28.7,26.1 28.6,26.3 28.6,26.3 28.6,26.5 28.6,26.7 28.7,26.8 28.8,26.8 28.8,26.8 
		29,26.5 29.2,26.2 29.4,26 29.4,25.9 29.3,25.9 	"/>
	<path class="st5" d="M28,27l0.2,0.1l0.2,0l0.3-0.1l0.2-0.1l0.1,0l0.2,0.2c0,0.2-0.1,0.4-0.3,0.6l-0.1,0.3l-0.3,0.2
		c-0.1,0-0.2-0.1-0.4-0.5c-0.2-0.3-0.2-0.5-0.2-0.6l0.2-0.2L28,27z"/>
	<path class="st1" d="M28.2,27.7l0,0.2l0.2,0.2c0.1,0,0.2-0.2,0.2-0.4l0-0.2l-0.1-0.1l-0.1,0h-0.1l-0.1,0L28.2,27.7"/>
	<path class="st0" d="M14.5,22.2h1.2v2.4h1.4v-2.4h3.5v2.4H22v-2.4h1.2V16h-1.4l0-0.1c-0.2-0.2-0.4-0.4-0.7-0.4
		c-0.3,0-0.5,0.2-0.6,0.4h-1c-0.1-0.3-0.4-0.4-0.7-0.4c-0.3,0-0.6,0.2-0.7,0.4h-1.1c-0.2-0.3-0.4-0.4-0.7-0.4
		c-0.3,0-0.5,0.1-0.6,0.4h-1.3V22.2z"/>
	<rect x="15" y="16.5" class="st4" width="7.7" height="5.3"/>
	<path class="st1" d="M15.8,17.7c-0.2,0-0.4,0.2-0.4,0.4c0,0.2,0.2,0.4,0.4,0.4c0.2,0,0.4-0.2,0.4-0.4C16.2,17.9,16,17.7,15.8,17.7"
		/>
	<path class="st0" d="M15.8,17.7l-0.3,0.3l0.3,0.3l0.3-0.3L15.8,17.7z M15.8,18.5c-0.2,0-0.4-0.2-0.4-0.4c0-0.2,0.2-0.4,0.4-0.4
		c0.2,0,0.4,0.2,0.4,0.4C16.3,18.3,16.1,18.5,15.8,18.5"/>
	<path class="st1" d="M21.9,17.7c-0.2,0-0.4,0.2-0.4,0.4c0,0.2,0.2,0.4,0.4,0.4c0.2,0,0.4-0.2,0.4-0.4
		C22.3,17.9,22.1,17.7,21.9,17.7"/>
	<path class="st0" d="M21.9,17.7l-0.3,0.3l0.3,0.3l0.3-0.3L21.9,17.7z M21.9,18.5c-0.2,0-0.4-0.2-0.4-0.4c0-0.2,0.2-0.4,0.4-0.4
		c0.2,0,0.4,0.2,0.4,0.4C22.3,18.3,22.1,18.5,21.9,18.5"/>
	<path class="st1" d="M15.8,20.6c-0.2,0-0.4,0.2-0.4,0.4c0,0.2,0.2,0.4,0.4,0.4c0.2,0,0.4-0.2,0.4-0.4C16.2,20.7,16,20.6,15.8,20.6"
		/>
	<path class="st0" d="M15.8,20.6l-0.3,0.3c0,0.2,0.1,0.3,0.3,0.3l0.3-0.3L15.8,20.6z M15.9,21.3c-0.2,0-0.4-0.2-0.4-0.4
		c0-0.2,0.2-0.4,0.4-0.4c0.2,0,0.4,0.2,0.4,0.4C16.3,21.2,16.1,21.3,15.9,21.3"/>
	<path class="st1" d="M21.9,20.6c-0.2,0-0.4,0.2-0.4,0.4c0,0.2,0.2,0.4,0.4,0.4c0.2,0,0.4-0.2,0.4-0.4
		C22.3,20.7,22.1,20.6,21.9,20.6"/>
	<path class="st0" d="M21.9,20.6l-0.3,0.3l0.3,0.3l0.3-0.3L21.9,20.6z M21.9,21.3c-0.2,0-0.4-0.2-0.4-0.4c0-0.2,0.2-0.4,0.4-0.4
		c0.2,0,0.4,0.2,0.4,0.4C22.3,21.2,22.1,21.3,21.9,21.3"/>
	<path class="st1" d="M17,19.5c0.5,0.6,1.1,0.9,1.9,0.9c0.7,0,1.2-0.3,1.8-0.9c-0.6-0.6-1.1-0.8-1.8-0.8
		C18.1,18.6,17.4,18.9,17,19.5"/>
	<path class="st0" d="M17.4,19.5c0.5-0.4,0.9-0.6,1.5-0.6c0.5,0,0.9,0.2,1.5,0.6c-0.5,0.5-0.9,0.6-1.5,0.6
		C18.3,20.1,17.8,19.9,17.4,19.5"/>
	<path class="st1" d="M18,19.3c0.3,0.2,0.5,0.3,0.8,0.3c0.3,0,0.6-0.1,0.9-0.3c-0.3-0.1-0.6-0.2-0.9-0.2
		C18.5,19.1,18.2,19.2,18,19.3"/>
	<rect x="14.9" y="16.8" class="st0" width="7.9" height="0.3"/>
	<path class="st6" d="M15,16.8h7.9V17H15V16.8z M14.9,17h8v-0.3h-8V17z"/>
	<path class="st1" d="M16.2,16.4V17v0.1c0,0.2,0.1,0.3,0.3,0.3c0.2,0,0.3-0.1,0.3-0.3V17v-0.6c0-0.3-0.1-0.5-0.3-0.5l-0.1,0l-0.1,0
		l-0.1,0.1l0,0.1"/>
	<path class="st1" d="M18.5,17v0.1c0,0.2,0.1,0.3,0.3,0.3c0.2,0,0.3-0.1,0.3-0.3V17v-0.6c0-0.3-0.1-0.5-0.3-0.5
		c-0.2,0-0.4,0.2-0.4,0.5"/>
	<path class="st1" d="M20.8,16.4V17v0.1c0,0.2,0.1,0.3,0.3,0.3c0.2,0,0.3-0.1,0.3-0.3V17v-0.6c0-0.3-0.1-0.5-0.3-0.5l-0.1,0L21,16
		l-0.1,0.1l0,0.1"/>
	<rect x="16" y="22.8" class="st1" width="0.7" height="0.9"/>
	<rect x="16" y="23.9" class="st1" width="0.7" height="0.3"/>
	<rect x="20.9" y="22.8" class="st1" width="0.7" height="0.9"/>
	<rect x="20.9" y="23.9" class="st1" width="0.7" height="0.3"/>
</g>
</svg>
